<svg width="22" height="22" viewBox="0 0 22 22" fill="none" xmlns="http://www.w3.org/2000/svg">
<path id="Vector" d="M11.0398 5.41675C7.93433 5.41675 5.42944 7.92163 5.42944 11.0271C5.42944 14.1326 7.93433 16.6374 11.0398 16.6374C14.1453 16.6374 16.6501 14.1326 16.6501 11.0271C16.6501 7.92163 14.1453 5.41675 11.0398 5.41675ZM11.0398 14.6746C9.03296 14.6746 7.39233 13.0388 7.39233 11.0271C7.39233 9.01538 9.02808 7.37964 11.0398 7.37964C13.0515 7.37964 14.6873 9.01538 14.6873 11.0271C14.6873 13.0388 13.0466 14.6746 11.0398 14.6746ZM18.1882 5.18726C18.1882 5.91479 17.6023 6.49585 16.8796 6.49585C16.1521 6.49585 15.571 5.90991 15.571 5.18726C15.571 4.4646 16.157 3.87866 16.8796 3.87866C17.6023 3.87866 18.1882 4.4646 18.1882 5.18726ZM21.9041 6.51538C21.821 4.76245 21.4207 3.20972 20.1365 1.93042C18.8572 0.651123 17.3044 0.250732 15.5515 0.162842C13.7449 0.0603027 8.32983 0.0603027 6.52319 0.162842C4.77515 0.24585 3.22241 0.64624 1.93823 1.92554C0.654053 3.20483 0.258545 4.75757 0.170654 6.5105C0.0681152 8.31714 0.0681152 13.7322 0.170654 15.5388C0.253662 17.2917 0.654053 18.8445 1.93823 20.1238C3.22241 21.4031 4.77026 21.8035 6.52319 21.8914C8.32983 21.9939 13.7449 21.9939 15.5515 21.8914C17.3044 21.8083 18.8572 21.408 20.1365 20.1238C21.4158 18.8445 21.8162 17.2917 21.9041 15.5388C22.0066 13.7322 22.0066 8.32202 21.9041 6.51538ZM19.5701 17.4773C19.1892 18.4343 18.4519 19.1716 17.49 19.5574C16.0496 20.1287 12.6316 19.9968 11.0398 19.9968C9.448 19.9968 6.02515 20.1238 4.5896 19.5574C3.63257 19.1765 2.89526 18.4392 2.50952 17.4773C1.93823 16.0369 2.07007 12.6189 2.07007 11.0271C2.07007 9.4353 1.94312 6.01245 2.50952 4.5769C2.89038 3.61987 3.62769 2.88257 4.5896 2.49683C6.03003 1.92554 9.448 2.05737 11.0398 2.05737C12.6316 2.05737 16.0544 1.93042 17.49 2.49683C18.447 2.87769 19.1843 3.61499 19.5701 4.5769C20.1414 6.01733 20.0095 9.4353 20.0095 11.0271C20.0095 12.6189 20.1414 16.0417 19.5701 17.4773Z" fill="#FBF9F5"/>
</svg>
