<svg width="15" height="15" viewBox="0 0 15 15" fill="none" xmlns="http://www.w3.org/2000/svg">
<g id="StarOutline">
<path id="Vector" d="M6.90581 1.82936C7.09331 1.25374 7.90768 1.25374 8.09456 1.82936L9.04393 4.75061C9.08479 4.87592 9.16421 4.9851 9.27085 5.06255C9.37749 5.14001 9.50588 5.18177 9.63768 5.18186H12.7096C13.3152 5.18186 13.5664 5.95686 13.0771 6.31311L10.5921 8.11811C10.4853 8.19571 10.4059 8.30511 10.3651 8.43063C10.3244 8.55616 10.3244 8.69136 10.3652 8.81686L11.3139 11.7381C11.5014 12.3144 10.8421 12.7931 10.3527 12.4369L7.86768 10.6319C7.76088 10.5542 7.63223 10.5124 7.50018 10.5124C7.36814 10.5124 7.23949 10.5542 7.13268 10.6319L4.64768 12.4369C4.15831 12.7931 3.49893 12.3137 3.68643 11.7381L4.63518 8.81686C4.67598 8.69136 4.676 8.55616 4.63525 8.43063C4.59449 8.30511 4.51505 8.19571 4.40831 8.11811L1.92331 6.31311C1.43331 5.95686 1.68581 5.18186 2.29081 5.18186H5.36206C5.49396 5.1819 5.6225 5.1402 5.72926 5.06274C5.83602 4.98527 5.91554 4.87602 5.95643 4.75061L6.90581 1.82936Z" stroke="black" stroke-linecap="round" stroke-linejoin="round"/>
</g>
</svg>
