<svg width="15" height="15" viewBox="0 0 15 15" fill="none" xmlns="http://www.w3.org/2000/svg">
<g id="Star">
<path id="Vector" d="M6.78673 2.19525C7.01173 1.5045 7.98898 1.5045 8.21323 2.19525L9.01573 4.66425C9.06476 4.81461 9.16007 4.94563 9.28803 5.03858C9.416 5.13152 9.57007 5.18163 9.72823 5.18175H12.3247C13.0515 5.18175 13.353 6.11175 12.7657 6.53925L10.6657 8.06475C10.5375 8.15777 10.442 8.289 10.393 8.43964C10.3439 8.59027 10.3439 8.75256 10.3927 8.90325L11.1952 11.3722C11.4202 12.063 10.629 12.6382 10.0402 12.2107L7.94023 10.6852C7.81214 10.5922 7.6579 10.5422 7.49961 10.5422C7.34131 10.5422 7.18708 10.5922 7.05898 10.6852L4.95898 12.2107C4.37098 12.6382 3.58048 12.063 3.80473 11.3722L4.60723 8.90325C4.65611 8.75256 4.65602 8.59027 4.60698 8.43964C4.55794 8.289 4.46246 8.15777 4.33423 8.06475L2.23498 6.54C1.64773 6.1125 1.94998 5.1825 2.67598 5.1825H5.27173C5.43002 5.18254 5.58426 5.1325 5.71237 5.03955C5.84049 4.94659 5.93591 4.81549 5.98498 4.665L6.78748 2.196L6.78673 2.19525Z" fill="black"/>
</g>
</svg>
