<svg width="26" height="22" viewBox="0 0 26 22" fill="none" xmlns="http://www.w3.org/2000/svg">
<path d="M23.4111 5.93513C23.427 6.1572 23.427 6.37932 23.427 6.60139C23.427 13.3748 18.2716 21.1794 8.84897 21.1794C5.94604 21.1794 3.24937 20.3386 0.980957 18.8793C1.39341 18.9269 1.78994 18.9427 2.21826 18.9427C4.61353 18.9427 6.81851 18.1338 8.5793 16.7537C6.32676 16.7061 4.43906 15.2308 3.78867 13.2004C4.10596 13.2479 4.42319 13.2797 4.75635 13.2797C5.21636 13.2797 5.67642 13.2162 6.10469 13.1052C3.75698 12.6293 1.99614 10.5671 1.99614 8.07664V8.01321C2.67822 8.39392 3.47144 8.63186 4.31211 8.66355C2.93203 7.74348 2.02788 6.17307 2.02788 4.39641C2.02788 3.44465 2.28164 2.57219 2.72583 1.81077C5.24805 4.9199 9.03931 6.95032 13.2905 7.17244C13.2112 6.79172 13.1636 6.39519 13.1636 5.99861C13.1636 3.17498 15.4479 0.874878 18.2874 0.874878C19.7626 0.874878 21.0951 1.49353 22.031 2.4929C23.189 2.27083 24.2994 1.8425 25.2829 1.25559C24.9021 2.44534 24.0932 3.4447 23.0304 4.07917C24.0615 3.96819 25.0608 3.68259 25.9809 3.28606C25.283 4.30124 24.4105 5.2054 23.4111 5.93513Z" fill="#FBF9F5"/>
</svg>
