<svg width="12" height="12" viewBox="0 0 12 12" fill="none" xmlns="http://www.w3.org/2000/svg">
<path fill-rule="evenodd" clip-rule="evenodd" d="M4.50346 1.50166C3.7072 1.50166 2.94355 1.81795 2.38051 2.38097C1.81747 2.94398 1.50115 3.70759 1.50115 4.50382C1.50115 5.30004 1.81747 6.06365 2.38051 6.62667C2.94355 7.18968 3.7072 7.50598 4.50346 7.50598C5.29972 7.50598 6.06337 7.18968 6.62641 6.62667C7.18945 6.06365 7.50576 5.30004 7.50576 4.50382C7.50576 3.70759 7.18945 2.94398 6.62641 2.38097C6.06337 1.81795 5.29972 1.50166 4.50346 1.50166ZM8.51615e-08 4.50382C-9.03617e-05 3.79509 0.16711 3.09634 0.488003 2.46441C0.808896 1.83247 1.27442 1.2852 1.84671 0.867093C2.41901 0.448988 3.08191 0.171858 3.78151 0.0582414C4.48111 -0.0553747 5.19765 -0.0022685 5.87286 0.213241C6.54806 0.42875 7.16286 0.800578 7.66726 1.29848C8.17166 1.79639 8.55141 2.40631 8.77563 3.07864C8.99985 3.75097 9.0622 4.46673 8.95762 5.16771C8.85304 5.86868 8.58448 6.53508 8.17378 7.1127L11.7893 10.728C11.926 10.8696 12.0017 11.0592 12 11.256C11.9983 11.4528 11.9193 11.641 11.7802 11.7802C11.641 11.9193 11.4527 11.9983 11.2559 12C11.0591 12.0017 10.8695 11.926 10.728 11.7893L7.11321 8.17471C6.43947 8.65377 5.64685 8.93813 4.82221 8.99664C3.99757 9.05515 3.17274 8.88555 2.4381 8.50643C1.70345 8.1273 1.08735 7.55328 0.657297 6.84727C0.227245 6.14125 -0.000160662 5.33049 8.51615e-08 4.50382Z" fill="#545454"/>
</svg>
