<svg width="380" height="380" viewBox="0 0 380 380" fill="none" xmlns="http://www.w3.org/2000/svg">
<path fill-rule="evenodd" clip-rule="evenodd" d="M190 328C266.215 328 328 266.215 328 190C328 113.785 266.215 52 190 52C113.785 52 52 113.785 52 190C52 266.215 113.785 328 190 328ZM190 330C267.32 330 330 267.32 330 190C330 112.68 267.32 50 190 50C112.68 50 50 112.68 50 190C50 267.32 112.68 330 190 330Z" fill="#FFEBC9"/>
<path fill-rule="evenodd" clip-rule="evenodd" d="M190 377.286C293.435 377.286 377.286 293.435 377.286 190C377.286 86.565 293.435 2.71429 190 2.71429C86.565 2.71429 2.71429 86.565 2.71429 190C2.71429 293.435 86.565 377.286 190 377.286ZM190 380C294.934 380 380 294.934 380 190C380 85.0659 294.934 0 190 0C85.0659 0 0 85.0659 0 190C0 294.934 85.0659 380 190 380Z" fill="#FFEBC9"/>
<circle cx="190" cy="190" r="5" fill="#FFEBC9"/>
<path d="M184.356 39.568C184.452 39.568 184.5 39.64 184.5 39.784C184.5 39.928 184.452 40 184.356 40C183.684 40 183.156 39.988 182.772 39.964L180.648 39.928L177.48 39.964C176.952 39.988 176.28 40 175.464 40C175.344 40 175.284 39.928 175.284 39.784C175.284 39.64 175.344 39.568 175.464 39.568C175.872 39.568 176.256 39.496 176.616 39.352C176.976 39.184 177.156 38.956 177.156 38.668C177.156 38.524 177.096 38.356 176.976 38.164L172.152 30.316L168.228 36.292C167.724 37.084 167.472 37.708 167.472 38.164C167.472 39.1 168.312 39.568 169.992 39.568C170.088 39.568 170.136 39.64 170.136 39.784C170.136 39.928 170.088 40 169.992 40C169.152 40 168.456 39.988 167.904 39.964L164.88 39.928L163.26 39.964C162.924 39.988 162.432 40 161.784 40C161.664 40 161.604 39.928 161.604 39.784C161.604 39.64 161.664 39.568 161.784 39.568C162.624 39.568 163.524 39.244 164.484 38.596C165.444 37.924 166.38 36.916 167.292 35.572L171.54 29.272L166.14 20.488C165.588 19.576 165.06 18.928 164.556 18.544C164.052 18.136 163.464 17.932 162.792 17.932C162.72 17.932 162.684 17.86 162.684 17.716C162.684 17.572 162.72 17.5 162.792 17.5L164.268 17.536C164.892 17.584 165.372 17.608 165.708 17.608C166.524 17.608 167.58 17.584 168.876 17.536L170.748 17.5C170.868 17.5 170.928 17.572 170.928 17.716C170.928 17.86 170.868 17.932 170.748 17.932C170.412 17.932 170.124 18.004 169.884 18.148C169.668 18.292 169.56 18.496 169.56 18.76C169.56 18.976 169.62 19.18 169.74 19.372L173.988 26.248L177.228 21.208C177.732 20.464 177.984 19.84 177.984 19.336C177.984 18.4 177.156 17.932 175.5 17.932C175.404 17.932 175.356 17.86 175.356 17.716C175.356 17.572 175.392 17.5 175.464 17.5L177.552 17.536C178.896 17.584 179.928 17.608 180.648 17.608C180.984 17.608 181.512 17.584 182.232 17.536L183.672 17.5C183.792 17.5 183.852 17.572 183.852 17.716C183.852 17.86 183.792 17.932 183.672 17.932C182.856 17.932 181.968 18.268 181.008 18.94C180.072 19.588 179.124 20.584 178.164 21.928L174.6 27.292L180.612 37.012C181.164 37.948 181.716 38.608 182.268 38.992C182.82 39.376 183.516 39.568 184.356 39.568ZM183.706 40C183.658 40 183.634 39.928 183.634 39.784C183.634 39.64 183.658 39.568 183.706 39.568C184.45 39.568 184.978 39.508 185.29 39.388C185.626 39.268 185.854 39.04 185.974 38.704C186.094 38.368 186.154 37.828 186.154 37.084V20.416C186.154 19.72 186.082 19.204 185.938 18.868C185.818 18.508 185.59 18.268 185.254 18.148C184.918 18.004 184.402 17.932 183.706 17.932C183.658 17.932 183.622 17.86 183.598 17.716C183.598 17.572 183.634 17.5 183.706 17.5L185.506 17.536C186.562 17.584 187.414 17.608 188.062 17.608C188.782 17.608 189.694 17.584 190.798 17.536L192.562 17.5C192.61 17.5 192.634 17.572 192.634 17.716C192.634 17.86 192.61 17.932 192.562 17.932C191.842 17.932 191.314 18.004 190.978 18.148C190.642 18.292 190.414 18.532 190.294 18.868C190.198 19.204 190.138 19.744 190.114 20.488V37.084C190.114 37.804 190.174 38.332 190.294 38.668C190.438 39.004 190.678 39.244 191.014 39.388C191.35 39.508 191.866 39.568 192.562 39.568C192.61 39.568 192.634 39.64 192.634 39.784C192.634 39.928 192.61 40 192.562 40C191.818 40 191.218 39.988 190.762 39.964L188.134 39.928L185.578 39.964C185.122 39.988 184.498 40 183.706 40ZM193.729 40C193.681 40 193.657 39.928 193.657 39.784C193.657 39.64 193.681 39.568 193.729 39.568C194.473 39.568 195.001 39.508 195.313 39.388C195.649 39.268 195.877 39.04 195.997 38.704C196.117 38.368 196.177 37.828 196.177 37.084V20.416C196.177 19.72 196.105 19.204 195.961 18.868C195.841 18.508 195.613 18.268 195.277 18.148C194.941 18.004 194.425 17.932 193.729 17.932C193.681 17.932 193.645 17.86 193.621 17.716C193.621 17.572 193.657 17.5 193.729 17.5L195.529 17.536C196.585 17.584 197.437 17.608 198.085 17.608C198.805 17.608 199.717 17.584 200.821 17.536L202.585 17.5C202.633 17.5 202.657 17.572 202.657 17.716C202.657 17.86 202.633 17.932 202.585 17.932C201.865 17.932 201.337 18.004 201.001 18.148C200.665 18.292 200.437 18.532 200.317 18.868C200.221 19.204 200.161 19.744 200.137 20.488V37.084C200.137 37.804 200.197 38.332 200.317 38.668C200.461 39.004 200.701 39.244 201.037 39.388C201.373 39.508 201.889 39.568 202.585 39.568C202.633 39.568 202.657 39.64 202.657 39.784C202.657 39.928 202.633 40 202.585 40C201.841 40 201.241 39.988 200.785 39.964L198.157 39.928L195.601 39.964C195.145 39.988 194.521 40 193.729 40Z" fill="#FFEBC9"/>
<path d="M264.558 57.7672C264.516 57.745 264.528 57.6701 264.594 57.5424C264.661 57.4146 264.715 57.3618 264.758 57.384C265.418 57.7275 265.914 57.9181 266.246 57.9558C266.6 58.0045 266.907 57.9075 267.169 57.6649C267.43 57.4222 267.733 56.971 268.076 56.311L275.773 41.5263C276.094 40.909 276.269 40.418 276.296 40.0535C276.356 39.6788 276.264 39.3606 276.022 39.099C275.79 38.8161 275.366 38.514 274.748 38.1926C274.706 38.1705 274.707 38.09 274.752 37.9512C274.819 37.8234 274.884 37.7762 274.948 37.8094L276.528 38.6725C277.442 39.2027 278.187 39.6174 278.762 39.9166C279.4 40.2491 280.22 40.6489 281.222 41.1161L282.803 41.8987C282.846 41.9209 282.834 41.9958 282.767 42.1235C282.701 42.2513 282.646 42.304 282.604 42.2819C281.965 41.9494 281.463 41.7695 281.099 41.7421C280.734 41.7146 280.421 41.8223 280.16 42.0649C279.919 42.3186 279.617 42.7699 279.252 43.4187L271.589 58.1396C271.256 58.7782 271.066 59.2742 271.017 59.6277C270.99 59.9922 271.092 60.3159 271.323 60.5988C271.566 60.8604 271.996 61.1519 272.613 61.4732C272.656 61.4954 272.644 61.5704 272.577 61.6981C272.511 61.8258 272.456 61.8786 272.414 61.8564C271.754 61.5129 271.227 61.2252 270.834 60.9934L268.519 59.7479L266.236 58.5997C265.82 58.4104 265.261 58.1329 264.558 57.7672Z" fill="#FFEBC9"/>
<path d="M313.334 110.72C313.307 110.681 313.354 110.622 313.475 110.545C313.597 110.467 313.671 110.448 313.698 110.488C314.12 111.101 314.47 111.503 314.748 111.696C315.04 111.908 315.362 111.973 315.713 111.891C316.064 111.809 316.554 111.568 317.181 111.168L331.233 102.203C331.819 101.829 332.214 101.492 332.415 101.192C332.651 100.9 332.724 100.583 332.634 100.242C332.565 99.8877 332.333 99.424 331.938 98.8508C331.911 98.8113 331.951 98.7429 332.059 98.6457C332.18 98.5682 332.261 98.5592 332.302 98.6185L333.293 100.12C333.852 101.016 334.315 101.73 334.682 102.264C335.091 102.857 335.628 103.595 336.295 104.478L337.326 105.912C337.353 105.951 337.306 106.01 337.185 106.087C337.063 106.165 336.989 106.184 336.962 106.144C336.553 105.551 336.193 105.155 335.881 104.956C335.569 104.757 335.237 104.698 334.886 104.78C334.548 104.881 334.059 105.122 333.418 105.503L319.427 114.429C318.82 114.816 318.409 115.15 318.194 115.429C317.992 115.729 317.926 116.055 317.995 116.409C318.085 116.751 318.327 117.208 318.722 117.781C318.749 117.821 318.702 117.879 318.581 117.957C318.459 118.034 318.385 118.053 318.358 118.013C317.936 117.401 317.605 116.9 317.367 116.512L315.906 114.328L314.426 112.242C314.147 111.88 313.783 111.372 313.334 110.72ZM319.019 118.974C318.992 118.934 319.039 118.876 319.16 118.799C319.282 118.721 319.356 118.702 319.383 118.742C319.805 119.354 320.156 119.757 320.434 119.949C320.725 120.161 321.047 120.227 321.398 120.145C321.75 120.063 322.239 119.822 322.866 119.422L336.918 110.457C337.505 110.082 337.899 109.746 338.1 109.446C338.336 109.154 338.409 108.837 338.319 108.496C338.25 108.141 338.018 107.678 337.623 107.105C337.596 107.065 337.636 106.997 337.744 106.899C337.866 106.822 337.947 106.813 337.988 106.872L338.978 108.374C339.537 109.269 340 109.984 340.367 110.518C340.776 111.111 341.313 111.849 341.98 112.732L343.011 114.166C343.038 114.205 342.991 114.264 342.87 114.341C342.749 114.418 342.674 114.437 342.647 114.398C342.239 113.805 341.878 113.409 341.566 113.21C341.254 113.01 340.923 112.952 340.571 113.034C340.234 113.135 339.744 113.376 339.104 113.757L325.112 122.683C324.505 123.07 324.094 123.404 323.879 123.683C323.678 123.982 323.611 124.309 323.681 124.663C323.77 125.005 324.012 125.462 324.407 126.035C324.434 126.074 324.387 126.133 324.266 126.21C324.144 126.288 324.07 126.307 324.043 126.267C323.621 125.655 323.291 125.154 323.052 124.766L321.592 122.582L320.111 120.496C319.833 120.134 319.468 119.626 319.019 118.974Z" fill="#FFEBC9"/>
<path d="M362 206.984C362 207.032 361.928 207.056 361.784 207.056C361.64 207.056 361.568 207.032 361.568 206.984C361.568 206.24 361.508 205.712 361.388 205.4C361.268 205.064 361.04 204.836 360.704 204.716C360.368 204.596 359.828 204.536 359.084 204.536H342.416C341.72 204.536 341.204 204.608 340.868 204.752C340.508 204.872 340.268 205.1 340.148 205.436C340.004 205.772 339.932 206.288 339.932 206.984C339.932 207.032 339.86 207.068 339.716 207.092C339.572 207.092 339.5 207.056 339.5 206.984L339.536 205.184C339.584 204.128 339.608 203.276 339.608 202.628C339.608 201.908 339.584 200.996 339.536 199.892L339.5 198.128C339.5 198.08 339.572 198.056 339.716 198.056C339.86 198.056 339.932 198.08 339.932 198.128C339.932 198.848 340.004 199.376 340.148 199.712C340.292 200.048 340.532 200.276 340.868 200.396C341.204 200.492 341.744 200.552 342.488 200.576H359.084C359.804 200.576 360.332 200.516 360.668 200.396C361.004 200.252 361.244 200.012 361.388 199.676C361.508 199.34 361.568 198.824 361.568 198.128C361.568 198.08 361.64 198.056 361.784 198.056C361.928 198.056 362 198.08 362 198.128C362 198.872 361.988 199.472 361.964 199.928L361.928 202.556L361.964 205.112C361.988 205.568 362 206.192 362 206.984ZM362 196.962C362 197.01 361.928 197.034 361.784 197.034C361.64 197.034 361.568 197.01 361.568 196.962C361.568 196.218 361.508 195.69 361.388 195.378C361.268 195.042 361.04 194.814 360.704 194.694C360.368 194.574 359.828 194.514 359.084 194.514H342.416C341.72 194.514 341.204 194.586 340.868 194.73C340.508 194.85 340.268 195.078 340.148 195.414C340.004 195.75 339.932 196.266 339.932 196.962C339.932 197.01 339.86 197.046 339.716 197.07C339.572 197.07 339.5 197.034 339.5 196.962L339.536 195.162C339.584 194.106 339.608 193.254 339.608 192.606C339.608 191.886 339.584 190.974 339.536 189.87L339.5 188.106C339.5 188.058 339.572 188.034 339.716 188.034C339.86 188.034 339.932 188.058 339.932 188.106C339.932 188.826 340.004 189.354 340.148 189.69C340.292 190.026 340.532 190.254 340.868 190.374C341.204 190.47 341.744 190.53 342.488 190.554H359.084C359.804 190.554 360.332 190.494 360.668 190.374C361.004 190.23 361.244 189.99 361.388 189.654C361.508 189.318 361.568 188.802 361.568 188.106C361.568 188.058 361.64 188.034 361.784 188.034C361.928 188.034 362 188.058 362 188.106C362 188.85 361.988 189.45 361.964 189.906L361.928 192.534L361.964 195.09C361.988 195.546 362 196.17 362 196.962ZM362 186.939C362 186.987 361.928 187.011 361.784 187.011C361.64 187.011 361.568 186.987 361.568 186.939C361.568 186.195 361.508 185.667 361.388 185.355C361.268 185.019 361.04 184.791 360.704 184.671C360.368 184.551 359.828 184.491 359.084 184.491H342.416C341.72 184.491 341.204 184.563 340.868 184.707C340.508 184.827 340.268 185.055 340.148 185.391C340.004 185.727 339.932 186.243 339.932 186.939C339.932 186.987 339.86 187.023 339.716 187.047C339.572 187.047 339.5 187.011 339.5 186.939L339.536 185.139C339.584 184.083 339.608 183.231 339.608 182.583C339.608 181.863 339.584 180.951 339.536 179.847L339.5 178.083C339.5 178.035 339.572 178.011 339.716 178.011C339.86 178.011 339.932 178.035 339.932 178.083C339.932 178.803 340.004 179.331 340.148 179.667C340.292 180.003 340.532 180.231 340.868 180.351C341.204 180.447 341.744 180.507 342.488 180.531H359.084C359.804 180.531 360.332 180.471 360.668 180.351C361.004 180.207 361.244 179.967 361.388 179.631C361.508 179.295 361.568 178.779 361.568 178.083C361.568 178.035 361.64 178.011 361.784 178.011C361.928 178.011 362 178.035 362 178.083C362 178.827 361.988 179.427 361.964 179.883L361.928 182.511L361.964 185.067C361.988 185.523 362 186.147 362 186.939Z" fill="#FFEBC9"/>
<path d="M40 206.984C40 207.032 39.928 207.056 39.784 207.056C39.64 207.056 39.568 207.032 39.568 206.984C39.568 206.24 39.508 205.712 39.388 205.4C39.268 205.064 39.04 204.836 38.704 204.716C38.368 204.596 37.828 204.536 37.084 204.536H20.416C19.72 204.536 19.204 204.608 18.868 204.752C18.508 204.872 18.268 205.1 18.148 205.436C18.004 205.772 17.932 206.288 17.932 206.984C17.932 207.032 17.86 207.068 17.716 207.092C17.572 207.092 17.5 207.056 17.5 206.984L17.536 205.184C17.584 204.128 17.608 203.276 17.608 202.628C17.608 201.908 17.584 200.996 17.536 199.892L17.5 198.128C17.5 198.08 17.572 198.056 17.716 198.056C17.86 198.056 17.932 198.08 17.932 198.128C17.932 198.848 18.004 199.376 18.148 199.712C18.292 200.048 18.532 200.276 18.868 200.396C19.204 200.492 19.744 200.552 20.488 200.576H37.084C37.804 200.576 38.332 200.516 38.668 200.396C39.004 200.252 39.244 200.012 39.388 199.676C39.508 199.34 39.568 198.824 39.568 198.128C39.568 198.08 39.64 198.056 39.784 198.056C39.928 198.056 40 198.08 40 198.128C40 198.872 39.988 199.472 39.964 199.928L39.928 202.556L39.964 205.112C39.988 205.568 40 206.192 40 206.984ZM39.568 176.622C39.568 176.526 39.64 176.478 39.784 176.478C39.928 176.478 40 176.526 40 176.622C40 177.294 39.988 177.822 39.964 178.206L39.928 180.33L39.964 183.498C39.988 184.026 40 184.698 40 185.514C40 185.634 39.928 185.694 39.784 185.694C39.64 185.694 39.568 185.634 39.568 185.514C39.568 185.106 39.496 184.722 39.352 184.362C39.184 184.002 38.956 183.822 38.668 183.822C38.524 183.822 38.356 183.882 38.164 184.002L30.316 188.826L36.292 192.75C37.084 193.254 37.708 193.506 38.164 193.506C39.1 193.506 39.568 192.666 39.568 190.986C39.568 190.89 39.64 190.842 39.784 190.842C39.928 190.842 40 190.89 40 190.986C40 191.826 39.988 192.522 39.964 193.074L39.928 196.098L39.964 197.718C39.988 198.054 40 198.546 40 199.194C40 199.314 39.928 199.374 39.784 199.374C39.64 199.374 39.568 199.314 39.568 199.194C39.568 198.354 39.244 197.454 38.596 196.494C37.924 195.534 36.916 194.598 35.572 193.686L29.272 189.438L20.488 194.838C19.576 195.39 18.928 195.918 18.544 196.422C18.136 196.926 17.932 197.514 17.932 198.186C17.932 198.258 17.86 198.294 17.716 198.294C17.572 198.294 17.5 198.258 17.5 198.186L17.536 196.71C17.584 196.086 17.608 195.606 17.608 195.27C17.608 194.454 17.584 193.398 17.536 192.102L17.5 190.23C17.5 190.11 17.572 190.05 17.716 190.05C17.86 190.05 17.932 190.11 17.932 190.23C17.932 190.566 18.004 190.854 18.148 191.094C18.292 191.31 18.496 191.418 18.76 191.418C18.976 191.418 19.18 191.358 19.372 191.238L26.248 186.99L21.208 183.75C20.464 183.246 19.84 182.994 19.336 182.994C18.4 182.994 17.932 183.822 17.932 185.478C17.932 185.574 17.86 185.622 17.716 185.622C17.572 185.622 17.5 185.586 17.5 185.514L17.536 183.426C17.584 182.082 17.608 181.05 17.608 180.33C17.608 179.994 17.584 179.466 17.536 178.746L17.5 177.306C17.5 177.186 17.572 177.126 17.716 177.126C17.86 177.126 17.932 177.186 17.932 177.306C17.932 178.122 18.268 179.01 18.94 179.97C19.588 180.906 20.584 181.854 21.928 182.814L27.292 186.378L37.012 180.366C37.948 179.814 38.608 179.262 38.992 178.71C39.376 178.158 39.568 177.462 39.568 176.622Z" fill="#FFEBC9"/>
<path d="M325.917 260.198C325.942 260.157 326.016 260.175 326.138 260.251C326.261 260.326 326.309 260.385 326.284 260.426C325.893 261.058 325.666 261.539 325.604 261.867C325.529 262.216 325.603 262.53 325.826 262.809C326.048 263.088 326.476 263.423 327.109 263.814L341.284 272.583C341.876 272.949 342.352 273.159 342.714 273.213C343.083 273.301 343.407 273.233 343.686 273.01C343.985 272.8 344.318 272.399 344.684 271.807C344.709 271.767 344.79 271.774 344.925 271.829C345.047 271.905 345.089 271.974 345.052 272.035L344.074 273.547C343.478 274.419 343.009 275.131 342.668 275.682C342.289 276.295 341.83 277.083 341.29 278.047L340.393 279.566C340.367 279.607 340.294 279.59 340.171 279.514C340.049 279.438 340 279.38 340.025 279.339C340.404 278.727 340.621 278.24 340.675 277.878C340.729 277.517 340.645 277.197 340.422 276.918C340.187 276.659 339.76 276.324 339.139 275.913L325.025 267.182C324.413 266.803 323.933 266.576 323.584 266.502C323.222 266.447 322.892 266.525 322.593 266.735C322.314 266.958 321.991 267.365 321.625 267.957C321.6 267.998 321.526 267.98 321.404 267.905C321.281 267.829 321.232 267.771 321.258 267.73C321.649 267.097 321.975 266.593 322.235 266.218L323.648 264.002L324.962 261.809C325.182 261.409 325.5 260.872 325.917 260.198ZM328.435 298.897C328.372 298.999 328.279 299.012 328.157 298.937C328.034 298.861 328.005 298.772 328.068 298.67C328.535 297.915 328.731 297.119 328.656 296.282C328.568 295.466 328.012 294.403 326.989 293.092L315.126 277.711C315.062 277.587 315.105 277.402 315.257 277.157C315.32 277.055 315.403 276.966 315.507 276.889C315.591 276.8 315.659 276.757 315.713 276.762L336.992 279.384C338.036 279.522 338.818 279.512 339.339 279.354C339.88 279.209 340.327 278.851 340.681 278.28C340.719 278.218 340.799 278.226 340.921 278.301C341.044 278.377 341.092 278.435 341.067 278.476L340.033 280.08C339.537 280.79 339.182 281.318 338.968 281.665C338.488 282.44 337.965 283.331 337.4 284.336L336.503 285.855C336.44 285.957 336.347 285.97 336.224 285.894C336.102 285.818 336.072 285.73 336.135 285.628C336.842 284.485 336.88 283.717 336.247 283.326C336.022 283.187 335.666 283.079 335.177 283.003L318.972 280.937L327.743 292.077C328.091 292.518 328.429 292.84 328.755 293.042C329.388 293.433 330.023 293.502 330.66 293.247C331.318 293.005 331.887 292.496 332.367 291.72C332.417 291.638 332.504 291.636 332.626 291.711C332.749 291.787 332.785 291.866 332.734 291.947L331.738 293.49C331.141 294.363 330.616 295.166 330.161 295.901C329.909 296.309 329.614 296.832 329.276 297.47L328.435 298.897Z" fill="#FFEBC9"/>
<path d="M273.641 344.963C273.546 345.035 273.455 345.015 273.367 344.9C273.28 344.786 273.284 344.692 273.379 344.619C274.085 344.08 274.551 343.406 274.779 342.598C274.988 341.804 274.847 340.612 274.358 339.023L268.751 320.425C268.735 320.286 268.842 320.129 269.071 319.955C269.166 319.882 269.276 319.828 269.401 319.793C269.511 319.739 269.59 319.724 269.638 319.748L288.587 329.777C289.513 330.278 290.248 330.547 290.791 330.585C291.348 330.642 291.894 330.467 292.427 330.059C292.485 330.015 292.557 330.05 292.644 330.165C292.732 330.279 292.757 330.351 292.718 330.38L291.181 331.51C290.465 331.997 289.945 332.364 289.621 332.612C288.897 333.166 288.091 333.812 287.205 334.549L285.826 335.649C285.73 335.722 285.639 335.701 285.551 335.587C285.464 335.472 285.468 335.379 285.563 335.306C286.631 334.49 286.939 333.786 286.487 333.195C286.327 332.985 286.032 332.757 285.602 332.512L271.196 324.81L275.424 338.344C275.592 338.88 275.793 339.3 276.026 339.605C276.478 340.196 277.047 340.486 277.733 340.475C278.434 340.483 279.147 340.21 279.872 339.657C279.948 339.598 280.03 339.626 280.117 339.741C280.205 339.855 280.21 339.941 280.134 340L278.653 341.086C277.785 341.689 277.008 342.253 276.322 342.778C275.94 343.069 275.478 343.453 274.935 343.928L273.641 344.963Z" fill="#FFEBC9"/>
<path d="M111.783 59.0263C111.861 58.9692 111.942 58.9986 112.028 59.1144C112.113 59.2302 112.117 59.3166 112.04 59.3737C111.5 59.7731 111.068 60.0773 110.745 60.2863L109.016 61.5199L106.489 63.4319C106.079 63.7651 105.546 64.1742 104.89 64.6592C104.793 64.7305 104.702 64.7083 104.617 64.5925C104.531 64.4767 104.536 64.3831 104.633 64.3118C104.961 64.0693 105.227 63.7831 105.431 63.4533C105.621 63.1042 105.63 62.8139 105.459 62.5823C105.373 62.4665 105.225 62.3671 105.014 62.284L96.47 58.8404L96.8667 65.9785C96.9321 66.915 97.1004 67.5666 97.3714 67.9333C97.9278 68.686 98.8815 68.563 100.232 67.5644C100.31 67.5073 100.391 67.5367 100.477 67.6525C100.562 67.7683 100.566 67.8547 100.489 67.9118C99.8138 68.4111 99.2469 68.8152 98.7888 69.124L96.3356 70.8925L95.0542 71.8844C94.7983 72.1034 94.4098 72.4055 93.8887 72.7907C93.7922 72.862 93.7012 72.8398 93.6156 72.724C93.53 72.6082 93.5354 72.5146 93.6319 72.4433C94.3074 71.944 94.8386 71.1485 95.2254 70.0568C95.5979 68.9457 95.7515 67.5788 95.686 65.9559L95.3573 58.3646L85.7935 54.5106C84.8075 54.1053 83.9977 53.8981 83.3642 53.8889C82.7164 53.8604 82.1223 54.0458 81.5819 54.4453C81.524 54.4881 81.4522 54.4516 81.3666 54.3358C81.281 54.22 81.2672 54.1407 81.3251 54.0979L82.5334 53.2495C83.0638 52.9172 83.464 52.6511 83.7342 52.4514C84.3904 51.9664 85.2254 51.3194 86.239 50.5104L87.723 49.3688C87.8195 49.2974 87.9106 49.3197 87.9962 49.4355C88.0817 49.5513 88.0763 49.6448 87.9798 49.7162C87.7096 49.9159 87.5208 50.145 87.4134 50.4034C87.3253 50.6476 87.3597 50.8759 87.5166 51.0882C87.645 51.2619 87.8145 51.3902 88.0252 51.4733L95.5284 54.4777L95.1381 48.4988C95.1011 47.6009 94.9329 46.9494 94.6333 46.5441C94.0769 45.7914 93.1329 45.9072 91.8012 46.8915C91.724 46.9486 91.6426 46.9192 91.557 46.8034C91.4714 46.6876 91.4575 46.6083 91.5154 46.5655L93.2159 45.3533C94.3253 44.5931 95.1694 43.9989 95.7484 43.571C96.0186 43.3712 96.429 43.0381 96.9794 42.5715L98.116 41.6866C98.2125 41.6153 98.3036 41.6375 98.3892 41.7533C98.4748 41.8691 98.4693 41.9627 98.3728 42.034C97.7166 42.519 97.2022 43.3171 96.8297 44.4281C96.4622 45.5056 96.2918 46.87 96.3187 48.5215L96.6411 54.9535L107.253 59.1963C108.254 59.6209 109.09 59.8235 109.762 59.8042C110.434 59.7849 111.108 59.5256 111.783 59.0263ZM111.518 59.7599C111.479 59.7884 111.417 59.7448 111.332 59.629C111.246 59.5132 111.222 59.441 111.261 59.4125C111.859 58.9702 112.248 58.6081 112.428 58.3262C112.627 58.03 112.675 57.7111 112.571 57.3696C112.468 57.028 112.195 56.5581 111.753 55.9598L101.845 42.556C101.432 41.9963 101.067 41.6242 100.752 41.4396C100.441 41.2214 100.115 41.1639 99.7736 41.2672C99.4178 41.3511 98.9601 41.5999 98.4004 42.0136C98.3618 42.0421 98.29 42.0056 98.1851 41.9041C98.0996 41.7883 98.0857 41.709 98.1436 41.6662L99.6125 40.6252C100.49 40.0361 101.19 39.549 101.711 39.1638C102.29 38.7358 103.009 38.1744 103.868 37.4796L105.265 36.4021C105.304 36.3736 105.366 36.4172 105.452 36.533C105.537 36.6488 105.561 36.721 105.522 36.7495C104.943 37.1775 104.561 37.5493 104.377 37.8648C104.192 38.1803 104.151 38.5088 104.255 38.8503C104.377 39.1776 104.65 39.6475 105.073 40.2601L114.938 53.606C115.366 54.185 115.728 54.5739 116.024 54.7728C116.339 54.9574 116.675 55.0077 117.031 54.9238C117.372 54.8206 117.823 54.5621 118.383 54.1484C118.421 54.1199 118.483 54.1635 118.569 54.2793C118.655 54.3951 118.678 54.4673 118.639 54.4958C118.041 54.938 117.552 55.285 117.171 55.5368L115.036 57.0699L113.002 58.6182C112.649 58.9086 112.155 59.2891 111.518 59.7599Z" fill="#FFEBC9"/>
<path d="M54.7634 127.239C54.7089 127.318 54.7424 127.396 54.8638 127.473C54.9852 127.551 55.0731 127.55 55.1275 127.471C55.5087 126.918 55.7981 126.476 55.9957 126.147L57.1702 124.379L58.9977 121.789C59.3174 121.367 59.7087 120.82 60.1716 120.148C60.2397 120.049 60.213 119.961 60.0916 119.884C59.9702 119.806 59.8755 119.817 59.8074 119.916C59.576 120.252 59.2974 120.529 58.9718 120.748C58.626 120.954 58.3317 120.98 58.0889 120.825C57.9675 120.748 57.8599 120.608 57.7661 120.406L53.8864 112.212L61.1503 112.195C62.1039 112.205 62.7729 112.334 63.1573 112.579C63.9464 113.082 63.8644 114.026 62.9114 115.409C62.857 115.488 62.8905 115.567 63.0119 115.644C63.1332 115.722 63.2212 115.721 63.2756 115.642C63.7521 114.95 64.1368 114.37 64.4297 113.903L66.1148 111.393L67.0641 110.078C67.2749 109.814 67.5641 109.416 67.9317 108.882C67.9998 108.783 67.9731 108.695 67.8517 108.618C67.7303 108.54 67.6356 108.551 67.5675 108.65C67.091 109.341 66.3073 109.908 65.2165 110.35C64.1054 110.78 62.7246 111.008 61.0743 111.036L53.3534 111.146L49.0114 101.975C48.5556 101.03 48.3089 100.246 48.271 99.6247C48.213 98.9902 48.3745 98.3962 48.7557 97.8428C48.7966 97.7835 48.7563 97.7151 48.6349 97.6377C48.5135 97.5602 48.4324 97.5511 48.3915 97.6104L47.5846 98.8454C47.2711 99.3851 47.0191 99.7933 46.8285 100.07C46.3656 100.742 45.7463 101.599 44.9707 102.64L43.8784 104.163C43.8104 104.261 43.837 104.349 43.9584 104.427C44.0798 104.504 44.1746 104.494 44.2426 104.395C44.4332 104.118 44.6573 103.92 44.9148 103.8C45.1588 103.699 45.392 103.72 45.6146 103.862C45.7967 103.978 45.9346 104.137 46.0284 104.339L49.4154 111.536L43.3286 111.493C42.4155 111.508 41.7465 111.38 41.3216 111.109C40.5325 110.606 40.6076 109.672 41.547 108.308C41.6015 108.229 41.568 108.151 41.4466 108.074C41.3252 107.996 41.2441 107.987 41.2033 108.046L40.0492 109.785C39.3272 110.918 38.7621 111.781 38.3536 112.374C38.163 112.65 37.8433 113.072 37.3944 113.639L36.5472 114.806C36.4791 114.905 36.5058 114.993 36.6272 115.07C36.7486 115.148 36.8433 115.137 36.9114 115.038C37.3743 114.366 38.1613 113.816 39.2724 113.387C40.3496 112.964 41.727 112.719 43.4046 112.652L49.9484 112.601L54.7324 122.781C55.2083 123.739 55.4516 124.548 55.4622 125.209C55.4728 125.87 55.2399 126.547 54.7634 127.239Z" fill="#FFEBC9"/>
<path d="M47.873 246.871C47.8477 246.83 47.7739 246.848 47.6514 246.924C47.5289 246.999 47.4803 247.058 47.5056 247.098C47.897 247.731 48.1237 248.212 48.1858 248.54C48.2605 248.889 48.1865 249.203 47.9639 249.482C47.7413 249.761 47.3136 250.096 46.6809 250.487L32.5057 259.255C31.9138 259.622 31.4371 259.832 31.0756 259.886C30.7063 259.973 30.3822 259.906 30.1034 259.683C29.8042 259.473 29.4715 259.072 29.1054 258.48C29.0801 258.44 29 258.447 28.8649 258.502C28.7424 258.578 28.7001 258.646 28.738 258.708L29.7155 260.219C30.3119 261.092 30.7805 261.804 31.1214 262.355C31.5001 262.968 31.9595 263.756 32.4995 264.72L33.3968 266.239C33.4221 266.28 33.4959 266.262 33.6184 266.187C33.7409 266.111 33.7895 266.053 33.7642 266.012C33.3855 265.4 33.1689 264.913 33.1146 264.551C33.0603 264.19 33.1445 263.869 33.3671 263.591C33.6024 263.332 34.03 262.997 34.6501 262.585L48.7641 253.855C49.3764 253.476 49.857 253.249 50.2059 253.175C50.5674 253.12 50.8978 253.198 51.197 253.408C51.4758 253.631 51.7983 254.038 52.1644 254.63C52.1897 254.671 52.2635 254.653 52.386 254.578C52.5085 254.502 52.5571 254.443 52.5318 254.403C52.1404 253.77 51.8146 253.266 51.5543 252.891L50.1412 250.675L48.8272 248.482C48.6077 248.082 48.2896 247.545 47.873 246.871ZM52.7666 254.782C52.7414 254.741 52.6675 254.759 52.5451 254.835C52.4226 254.91 52.374 254.969 52.3992 255.01C52.7906 255.642 53.0174 256.123 53.0794 256.451C53.1541 256.8 53.0802 257.114 52.8576 257.393C52.6349 257.672 52.2073 258.007 51.5745 258.398L37.3993 267.167C36.8074 267.533 36.3307 267.743 35.9692 267.797C35.5999 267.885 35.2759 267.817 34.9971 267.594C34.6978 267.384 34.3652 266.983 33.999 266.391C33.9738 266.351 33.8936 266.358 33.7585 266.413C33.636 266.489 33.5938 266.558 33.6316 266.619L34.6092 268.131C35.2055 269.003 35.6741 269.715 36.015 270.266C36.3938 270.879 36.8531 271.667 37.3931 272.631L38.2905 274.15C38.3157 274.191 38.3896 274.174 38.512 274.098C38.6345 274.022 38.6831 273.964 38.6579 273.923C38.2791 273.311 38.0626 272.824 38.0083 272.462C37.954 272.101 38.0381 271.781 38.2608 271.502C38.496 271.243 38.9237 270.908 39.5438 270.496L53.6578 261.766C54.2701 261.387 54.7507 261.16 55.0996 261.086C55.4611 261.031 55.7914 261.109 56.0906 261.319C56.3695 261.542 56.6919 261.949 57.0581 262.541C57.0833 262.582 57.1572 262.564 57.2796 262.489C57.4021 262.413 57.4507 262.355 57.4255 262.314C57.0341 261.681 56.7082 261.177 56.4479 260.802L55.0348 258.586L53.7208 256.393C53.5013 255.993 53.1833 255.456 52.7666 254.782ZM57.6603 262.693C57.635 262.653 57.5612 262.67 57.4387 262.746C57.3162 262.822 57.2676 262.88 57.2929 262.921C57.6843 263.553 57.911 264.034 57.9731 264.362C58.0478 264.711 57.9738 265.025 57.7512 265.304C57.5286 265.583 57.1009 265.918 56.4682 266.309L42.293 275.078C41.7011 275.444 41.2244 275.654 40.8629 275.708C40.4936 275.796 40.1695 275.728 39.8907 275.505C39.5915 275.295 39.2588 274.895 38.8927 274.303C38.8674 274.262 38.7872 274.269 38.6522 274.324C38.5297 274.4 38.4874 274.469 38.5253 274.53L39.5028 276.042C40.0992 276.915 40.5678 277.626 40.9087 278.178C41.2874 278.79 41.7468 279.578 42.2867 280.542L43.1841 282.061C43.2094 282.102 43.2832 282.085 43.4057 282.009C43.5281 281.933 43.5768 281.875 43.5515 281.834C43.1727 281.222 42.9562 280.735 42.9019 280.373C42.8476 280.012 42.9318 279.692 43.1544 279.413C43.3896 279.155 43.8173 278.819 44.4374 278.408L58.5514 269.677C59.1637 269.298 59.6443 269.072 59.9932 268.997C60.3547 268.943 60.6851 269.02 60.9843 269.23C61.2631 269.453 61.5856 269.86 61.9517 270.452C61.977 270.493 62.0508 270.476 62.1733 270.4C62.2957 270.324 62.3444 270.266 62.3191 270.225C61.9277 269.592 61.6019 269.088 61.3416 268.713L59.9285 266.497L58.6144 264.304C58.395 263.904 58.0769 263.367 57.6603 262.693ZM54.763 300.78C54.8261 300.882 54.9189 300.895 55.0414 300.819C55.1638 300.744 55.1935 300.655 55.1304 300.553C54.6632 299.798 54.4672 299.002 54.5423 298.165C54.6301 297.349 55.1858 296.285 56.2094 294.975L68.0722 279.594C68.1364 279.47 68.0927 279.285 67.9412 279.04C67.8781 278.938 67.7946 278.849 67.6906 278.772C67.6071 278.682 67.5386 278.64 67.4851 278.645L46.2062 281.267C45.1626 281.405 44.3803 281.395 43.8595 281.237C43.3183 281.092 42.871 280.734 42.5174 280.162C42.4796 280.101 42.3994 280.108 42.2769 280.184C42.1545 280.26 42.1059 280.318 42.1311 280.359L43.1655 281.963C43.6608 282.672 44.0158 283.201 44.2304 283.548C44.7102 284.323 45.2327 285.213 45.7979 286.218L46.6953 287.738C46.7584 287.84 46.8512 287.853 46.9736 287.777C47.0961 287.701 47.1258 287.612 47.0626 287.51C46.3556 286.367 46.3185 285.6 46.9512 285.209C47.1757 285.07 47.5324 284.962 48.0212 284.885L64.226 282.82L55.4548 293.96C55.1067 294.401 54.7694 294.723 54.4429 294.925C53.8101 295.316 53.1751 295.384 52.5377 295.13C51.8799 294.887 51.3112 294.378 50.8314 293.603C50.7809 293.521 50.6944 293.518 50.5719 293.594C50.4495 293.67 50.4135 293.748 50.464 293.83L51.4605 295.373C52.0568 296.245 52.5822 297.049 53.0368 297.784C53.2893 298.192 53.5845 298.715 53.9224 299.353L54.763 300.78Z" fill="#FFEBC9"/>
<path d="M90.0682 306.238C90.026 306.215 89.9707 306.267 89.9023 306.394C89.834 306.52 89.8209 306.595 89.8631 306.618C90.5179 306.971 90.9541 307.275 91.1718 307.528C91.4105 307.794 91.5029 308.102 91.449 308.455C91.3951 308.808 91.1915 309.312 90.8383 309.966L82.9246 324.636C82.5941 325.249 82.2858 325.668 81.9995 325.896C81.723 326.156 81.4083 326.259 81.0557 326.205C80.6916 326.172 80.2033 325.99 79.5907 325.66C79.5485 325.637 79.4826 325.683 79.3931 325.799C79.3247 325.925 79.3222 326.006 79.3856 326.04L80.9869 326.863C81.9391 327.322 82.7003 327.706 83.2706 328.013C83.9043 328.355 84.6955 328.809 85.6444 329.376L87.1798 330.245C87.222 330.268 87.2773 330.216 87.3457 330.089C87.4141 329.962 87.4271 329.887 87.3849 329.865C86.7512 329.523 86.3207 329.209 86.0934 328.922C85.866 328.636 85.7793 328.317 85.8332 327.964C85.9083 327.623 86.1118 327.119 86.4439 326.453L94.3235 311.847C94.6653 311.213 94.9688 310.777 95.2339 310.538C95.5202 310.311 95.8454 310.213 96.2095 310.246C96.5621 310.3 97.0448 310.492 97.6573 310.823C97.6996 310.845 97.7549 310.793 97.8232 310.667C97.8916 310.54 97.9047 310.465 97.8624 310.442C97.2076 310.089 96.6739 309.815 96.2611 309.62L93.9311 308.403L91.6987 307.158C91.3088 306.921 90.7653 306.614 90.0682 306.238ZM98.8889 310.996C98.8467 310.973 98.7914 311.025 98.723 311.152C98.6546 311.279 98.6416 311.354 98.6838 311.376C99.3386 311.73 99.7748 312.033 99.9924 312.287C100.231 312.552 100.324 312.861 100.27 313.214C100.216 313.566 100.012 314.07 99.6589 314.725L91.7452 329.394C91.4148 330.007 91.1064 330.427 90.8202 330.654C90.5436 330.914 90.229 331.017 89.8763 330.963C89.5123 330.93 89.0239 330.749 88.4114 330.418C88.3691 330.396 88.3033 330.442 88.2138 330.557C88.1454 330.684 88.1429 330.764 88.2063 330.799L89.8076 331.621C90.7597 332.081 91.521 332.464 92.0913 332.772C92.725 333.113 93.5162 333.568 94.4651 334.134L96.0005 335.003C96.0427 335.026 96.098 334.974 96.1664 334.847C96.2348 334.721 96.2478 334.646 96.2056 334.623C95.5719 334.281 95.1414 333.967 94.914 333.681C94.6867 333.395 94.6 333.075 94.6539 332.722C94.7289 332.381 94.9325 331.877 95.2646 331.211L103.144 316.605C103.486 315.971 103.789 315.535 104.055 315.296C104.341 315.069 104.666 314.972 105.03 315.005C105.383 315.058 105.865 315.251 106.478 315.581C106.52 315.604 106.576 315.552 106.644 315.425C106.712 315.298 106.725 315.224 106.683 315.201C106.028 314.848 105.495 314.573 105.082 314.378L102.752 313.162L100.519 311.917C100.129 311.679 99.586 311.372 98.8889 310.996ZM116.005 345.795C116.111 345.852 116.198 345.817 116.266 345.691C116.335 345.564 116.316 345.472 116.211 345.415C115.429 344.993 114.862 344.401 114.51 343.639C114.179 342.887 114.13 341.689 114.364 340.042L116.976 320.794C116.969 320.655 116.84 320.516 116.586 320.38C116.48 320.323 116.363 320.287 116.235 320.272C116.118 320.236 116.038 320.234 115.994 320.265L98.8575 333.149C98.0215 333.789 97.3385 334.171 96.8085 334.294C96.2671 334.438 95.7007 334.351 95.1093 334.032C95.0459 333.997 94.98 334.044 94.9117 334.17C94.8433 334.297 94.8302 334.372 94.8725 334.395L96.5688 335.269C97.352 335.637 97.9231 335.918 98.2822 336.111C99.0849 336.544 99.9818 337.056 100.973 337.645L102.508 338.514C102.614 338.571 102.701 338.536 102.769 338.409C102.838 338.283 102.819 338.191 102.713 338.134C101.53 337.496 101.116 336.849 101.469 336.194C101.594 335.962 101.85 335.691 102.235 335.381L115.251 325.509L113.204 339.539C113.122 340.095 112.99 340.542 112.808 340.88C112.455 341.534 111.938 341.91 111.259 342.007C110.568 342.126 109.821 341.968 109.018 341.535C108.934 341.489 108.857 341.53 108.789 341.657C108.721 341.784 108.729 341.87 108.813 341.915L110.446 342.755C111.398 343.214 112.255 343.649 113.015 344.059C113.438 344.287 113.954 344.593 114.565 344.977L116.005 345.795Z" fill="#FFEBC9"/>
<path d="M193.58 362.5C193.7 362.5 193.76 362.428 193.76 362.284C193.76 362.14 193.7 362.068 193.58 362.068C192.692 362.068 191.912 361.816 191.24 361.312C190.592 360.808 189.98 359.776 189.404 358.216L182.564 340.036C182.492 339.916 182.312 339.856 182.024 339.856C181.904 339.856 181.784 339.88 181.664 339.928C181.544 339.952 181.472 339.988 181.448 340.036L172.484 359.512C172.052 360.472 171.632 361.132 171.224 361.492C170.816 361.876 170.276 362.068 169.604 362.068C169.532 362.068 169.496 362.14 169.496 362.284C169.496 362.428 169.52 362.5 169.568 362.5L171.476 362.464C172.34 362.416 172.976 362.392 173.384 362.392C174.296 362.392 175.328 362.416 176.48 362.464L178.244 362.5C178.364 362.5 178.424 362.428 178.424 362.284C178.424 362.14 178.364 362.068 178.244 362.068C176.9 362.068 176.228 361.696 176.228 360.952C176.228 360.688 176.324 360.328 176.516 359.872L183.284 345.004L188.144 358.324C188.336 358.852 188.432 359.308 188.432 359.692C188.432 360.436 188.156 361.012 187.604 361.42C187.052 361.852 186.32 362.068 185.408 362.068C185.312 362.068 185.264 362.14 185.264 362.284C185.264 362.428 185.312 362.5 185.408 362.5L187.244 362.464C188.3 362.416 189.26 362.392 190.124 362.392C190.604 362.392 191.204 362.416 191.924 362.464L193.58 362.5ZM192.445 340C192.397 340 192.373 340.072 192.373 340.216C192.373 340.36 192.397 340.432 192.445 340.432C193.189 340.432 193.717 340.492 194.029 340.612C194.365 340.732 194.593 340.96 194.713 341.296C194.833 341.632 194.893 342.172 194.893 342.916V359.584C194.893 360.28 194.821 360.796 194.677 361.132C194.557 361.492 194.329 361.732 193.993 361.852C193.657 361.996 193.141 362.068 192.445 362.068C192.397 362.068 192.361 362.14 192.337 362.284C192.337 362.428 192.373 362.5 192.445 362.5L194.245 362.464C195.301 362.416 196.153 362.392 196.801 362.392C197.521 362.392 198.433 362.416 199.537 362.464L201.301 362.5C201.349 362.5 201.373 362.428 201.373 362.284C201.373 362.14 201.349 362.068 201.301 362.068C200.581 362.068 200.053 361.996 199.717 361.852C199.381 361.708 199.153 361.468 199.033 361.132C198.937 360.796 198.877 360.256 198.853 359.512V342.916C198.853 342.196 198.913 341.668 199.033 341.332C199.177 340.996 199.417 340.756 199.753 340.612C200.089 340.492 200.605 340.432 201.301 340.432C201.349 340.432 201.373 340.36 201.373 340.216C201.373 340.072 201.349 340 201.301 340C200.557 340 199.957 340.012 199.501 340.036L196.873 340.072L194.317 340.036C193.861 340.012 193.237 340 192.445 340Z" fill="#FFEBC9"/>
<path d="M279 190L269 184.226V195.774L279 190ZM195 191H270V189H195V191Z" fill="#FFEBC9"/>
<path d="M191 76.9908L185.226 86.9908H196.774L191 76.9908ZM192 185.009V85.9908H190V185.009H192Z" fill="#FFEBC9"/>
</svg>
