<svg width="356" height="356" viewBox="0 0 356 356" fill="none" xmlns="http://www.w3.org/2000/svg">
<path fill-rule="evenodd" clip-rule="evenodd" d="M178 316C254.215 316 316 254.215 316 178C316 101.785 254.215 40 178 40C101.785 40 40 101.785 40 178C40 254.215 101.785 316 178 316ZM178 318C255.32 318 318 255.32 318 178C318 100.68 255.32 38 178 38C100.68 38 38 100.68 38 178C38 255.32 100.68 318 178 318Z" fill="#FFEBC9"/>
<circle cx="178" cy="178" r="5" fill="#FFEBC9"/>
<path d="M172.356 27.568C172.452 27.568 172.5 27.64 172.5 27.784C172.5 27.928 172.452 28 172.356 28C171.684 28 171.156 27.988 170.772 27.964L168.648 27.928L165.48 27.964C164.952 27.988 164.28 28 163.464 28C163.344 28 163.284 27.928 163.284 27.784C163.284 27.64 163.344 27.568 163.464 27.568C163.872 27.568 164.256 27.496 164.616 27.352C164.976 27.184 165.156 26.956 165.156 26.668C165.156 26.524 165.096 26.356 164.976 26.164L160.152 18.316L156.228 24.292C155.724 25.084 155.472 25.708 155.472 26.164C155.472 27.1 156.312 27.568 157.992 27.568C158.088 27.568 158.136 27.64 158.136 27.784C158.136 27.928 158.088 28 157.992 28C157.152 28 156.456 27.988 155.904 27.964L152.88 27.928L151.26 27.964C150.924 27.988 150.432 28 149.784 28C149.664 28 149.604 27.928 149.604 27.784C149.604 27.64 149.664 27.568 149.784 27.568C150.624 27.568 151.524 27.244 152.484 26.596C153.444 25.924 154.38 24.916 155.292 23.572L159.54 17.272L154.14 8.488C153.588 7.576 153.06 6.928 152.556 6.544C152.052 6.136 151.464 5.932 150.792 5.932C150.72 5.932 150.684 5.86 150.684 5.716C150.684 5.572 150.72 5.5 150.792 5.5L152.268 5.536C152.892 5.584 153.372 5.608 153.708 5.608C154.524 5.608 155.58 5.584 156.876 5.536L158.748 5.5C158.868 5.5 158.928 5.572 158.928 5.716C158.928 5.86 158.868 5.932 158.748 5.932C158.412 5.932 158.124 6.004 157.884 6.148C157.668 6.292 157.56 6.496 157.56 6.76C157.56 6.976 157.62 7.18 157.74 7.372L161.988 14.248L165.228 9.208C165.732 8.464 165.984 7.84 165.984 7.336C165.984 6.4 165.156 5.932 163.5 5.932C163.404 5.932 163.356 5.86 163.356 5.716C163.356 5.572 163.392 5.5 163.464 5.5L165.552 5.536C166.896 5.584 167.928 5.608 168.648 5.608C168.984 5.608 169.512 5.584 170.232 5.536L171.672 5.5C171.792 5.5 171.852 5.572 171.852 5.716C171.852 5.86 171.792 5.932 171.672 5.932C170.856 5.932 169.968 6.268 169.008 6.94C168.072 7.588 167.124 8.584 166.164 9.928L162.6 15.292L168.612 25.012C169.164 25.948 169.716 26.608 170.268 26.992C170.82 27.376 171.516 27.568 172.356 27.568ZM171.706 28C171.658 28 171.634 27.928 171.634 27.784C171.634 27.64 171.658 27.568 171.706 27.568C172.45 27.568 172.978 27.508 173.29 27.388C173.626 27.268 173.854 27.04 173.974 26.704C174.094 26.368 174.154 25.828 174.154 25.084V8.416C174.154 7.72 174.082 7.204 173.938 6.868C173.818 6.508 173.59 6.268 173.254 6.148C172.918 6.004 172.402 5.932 171.706 5.932C171.658 5.932 171.622 5.86 171.598 5.716C171.598 5.572 171.634 5.5 171.706 5.5L173.506 5.536C174.562 5.584 175.414 5.608 176.062 5.608C176.782 5.608 177.694 5.584 178.798 5.536L180.562 5.5C180.61 5.5 180.634 5.572 180.634 5.716C180.634 5.86 180.61 5.932 180.562 5.932C179.842 5.932 179.314 6.004 178.978 6.148C178.642 6.292 178.414 6.532 178.294 6.868C178.198 7.204 178.138 7.744 178.114 8.488V25.084C178.114 25.804 178.174 26.332 178.294 26.668C178.438 27.004 178.678 27.244 179.014 27.388C179.35 27.508 179.866 27.568 180.562 27.568C180.61 27.568 180.634 27.64 180.634 27.784C180.634 27.928 180.61 28 180.562 28C179.818 28 179.218 27.988 178.762 27.964L176.134 27.928L173.578 27.964C173.122 27.988 172.498 28 171.706 28ZM181.729 28C181.681 28 181.657 27.928 181.657 27.784C181.657 27.64 181.681 27.568 181.729 27.568C182.473 27.568 183.001 27.508 183.313 27.388C183.649 27.268 183.877 27.04 183.997 26.704C184.117 26.368 184.177 25.828 184.177 25.084V8.416C184.177 7.72 184.105 7.204 183.961 6.868C183.841 6.508 183.613 6.268 183.277 6.148C182.941 6.004 182.425 5.932 181.729 5.932C181.681 5.932 181.645 5.86 181.621 5.716C181.621 5.572 181.657 5.5 181.729 5.5L183.529 5.536C184.585 5.584 185.437 5.608 186.085 5.608C186.805 5.608 187.717 5.584 188.821 5.536L190.585 5.5C190.633 5.5 190.657 5.572 190.657 5.716C190.657 5.86 190.633 5.932 190.585 5.932C189.865 5.932 189.337 6.004 189.001 6.148C188.665 6.292 188.437 6.532 188.317 6.868C188.221 7.204 188.161 7.744 188.137 8.488V25.084C188.137 25.804 188.197 26.332 188.317 26.668C188.461 27.004 188.701 27.244 189.037 27.388C189.373 27.508 189.889 27.568 190.585 27.568C190.633 27.568 190.657 27.64 190.657 27.784C190.657 27.928 190.633 28 190.585 28C189.841 28 189.241 27.988 188.785 27.964L186.157 27.928L183.601 27.964C183.145 27.988 182.521 28 181.729 28Z" fill="#FFEBC9"/>
<path d="M252.558 45.7672C252.516 45.745 252.528 45.6701 252.594 45.5424C252.661 45.4146 252.715 45.3618 252.758 45.384C253.418 45.7275 253.914 45.9181 254.246 45.9558C254.6 46.0045 254.907 45.9075 255.169 45.6649C255.43 45.4222 255.733 44.971 256.076 44.311L263.773 29.5263C264.094 28.909 264.269 28.418 264.296 28.0535C264.356 27.6788 264.264 27.3606 264.022 27.099C263.79 26.8161 263.366 26.514 262.748 26.1926C262.706 26.1705 262.707 26.09 262.752 25.9512C262.819 25.8234 262.884 25.7762 262.948 25.8094L264.528 26.6725C265.442 27.2027 266.187 27.6174 266.762 27.9166C267.4 28.2491 268.22 28.6489 269.222 29.1161L270.803 29.8987C270.846 29.9209 270.834 29.9958 270.767 30.1235C270.701 30.2513 270.646 30.304 270.604 30.2819C269.965 29.9494 269.463 29.7695 269.099 29.7421C268.734 29.7146 268.421 29.8223 268.16 30.0649C267.919 30.3186 267.617 30.7699 267.252 31.4187L259.589 46.1396C259.256 46.7782 259.066 47.2742 259.017 47.6277C258.99 47.9922 259.092 48.3159 259.323 48.5988C259.566 48.8604 259.996 49.1519 260.613 49.4732C260.656 49.4954 260.644 49.5704 260.577 49.6981C260.511 49.8258 260.456 49.8786 260.414 49.8564C259.754 49.5129 259.227 49.2252 258.834 48.9934L256.519 47.7479L254.236 46.5997C253.82 46.4104 253.261 46.1329 252.558 45.7672Z" fill="#FFEBC9"/>
<path d="M301.334 98.7202C301.307 98.6807 301.354 98.6222 301.475 98.5447C301.597 98.4673 301.671 98.4483 301.698 98.4878C302.12 99.1005 302.47 99.5031 302.748 99.6955C303.04 99.9077 303.362 99.9728 303.713 99.8909C304.064 99.809 304.554 99.568 305.181 99.1678L319.233 90.2029C319.819 89.8285 320.214 89.4917 320.415 89.1924C320.651 88.8999 320.724 88.5831 320.634 88.2418C320.565 87.8877 320.333 87.424 319.938 86.8508C319.911 86.8113 319.951 86.7429 320.059 86.6457C320.18 86.5682 320.261 86.5592 320.302 86.6185L321.293 88.1202C321.852 89.0157 322.315 89.7302 322.682 90.2639C323.091 90.8568 323.628 91.595 324.295 92.4784L325.326 93.9117C325.353 93.9513 325.306 94.0098 325.185 94.0872C325.063 94.1647 324.989 94.1836 324.962 94.1441C324.553 93.5511 324.193 93.155 323.881 92.9558C323.569 92.7565 323.237 92.6978 322.886 92.7797C322.548 92.8814 322.059 93.1224 321.418 93.5028L307.427 102.429C306.82 102.816 306.409 103.15 306.194 103.429C305.992 103.729 305.926 104.055 305.995 104.409C306.085 104.751 306.327 105.208 306.722 105.781C306.749 105.821 306.702 105.879 306.581 105.957C306.459 106.034 306.385 106.053 306.358 106.013C305.936 105.401 305.605 104.9 305.367 104.512L303.906 102.328L302.426 100.242C302.147 99.8799 301.783 99.3724 301.334 98.7202ZM307.019 106.974C306.992 106.934 307.039 106.876 307.16 106.799C307.282 106.721 307.356 106.702 307.383 106.742C307.805 107.354 308.156 107.757 308.434 107.949C308.725 108.161 309.047 108.227 309.398 108.145C309.75 108.063 310.239 107.822 310.866 107.422L324.918 98.4567C325.505 98.0823 325.899 97.7455 326.1 97.4462C326.336 97.1537 326.409 96.8369 326.319 96.4956C326.25 96.1415 326.018 95.6778 325.623 95.1046C325.596 95.0651 325.636 94.9967 325.744 94.8995C325.866 94.822 325.947 94.813 325.988 94.8723L326.978 96.374C327.537 97.2695 328 97.984 328.367 98.5177C328.776 99.1106 329.313 99.8488 329.98 100.732L331.011 102.166C331.038 102.205 330.991 102.264 330.87 102.341C330.749 102.418 330.674 102.437 330.647 102.398C330.239 101.805 329.878 101.409 329.566 101.21C329.254 101.01 328.923 100.952 328.571 101.034C328.234 101.135 327.744 101.376 327.104 101.757L313.112 110.683C312.505 111.07 312.094 111.404 311.879 111.683C311.678 111.982 311.611 112.309 311.681 112.663C311.77 113.005 312.012 113.462 312.407 114.035C312.434 114.074 312.387 114.133 312.266 114.21C312.144 114.288 312.07 114.307 312.043 114.267C311.621 113.655 311.291 113.154 311.052 112.766L309.592 110.582L308.111 108.496C307.833 108.134 307.468 107.626 307.019 106.974Z" fill="#FFEBC9"/>
<path d="M350 194.984C350 195.032 349.928 195.056 349.784 195.056C349.64 195.056 349.568 195.032 349.568 194.984C349.568 194.24 349.508 193.712 349.388 193.4C349.268 193.064 349.04 192.836 348.704 192.716C348.368 192.596 347.828 192.536 347.084 192.536H330.416C329.72 192.536 329.204 192.608 328.868 192.752C328.508 192.872 328.268 193.1 328.148 193.436C328.004 193.772 327.932 194.288 327.932 194.984C327.932 195.032 327.86 195.068 327.716 195.092C327.572 195.092 327.5 195.056 327.5 194.984L327.536 193.184C327.584 192.128 327.608 191.276 327.608 190.628C327.608 189.908 327.584 188.996 327.536 187.892L327.5 186.128C327.5 186.08 327.572 186.056 327.716 186.056C327.86 186.056 327.932 186.08 327.932 186.128C327.932 186.848 328.004 187.376 328.148 187.712C328.292 188.048 328.532 188.276 328.868 188.396C329.204 188.492 329.744 188.552 330.488 188.576H347.084C347.804 188.576 348.332 188.516 348.668 188.396C349.004 188.252 349.244 188.012 349.388 187.676C349.508 187.34 349.568 186.824 349.568 186.128C349.568 186.08 349.64 186.056 349.784 186.056C349.928 186.056 350 186.08 350 186.128C350 186.872 349.988 187.472 349.964 187.928L349.928 190.556L349.964 193.112C349.988 193.568 350 194.192 350 194.984ZM350 184.962C350 185.01 349.928 185.034 349.784 185.034C349.64 185.034 349.568 185.01 349.568 184.962C349.568 184.218 349.508 183.69 349.388 183.378C349.268 183.042 349.04 182.814 348.704 182.694C348.368 182.574 347.828 182.514 347.084 182.514H330.416C329.72 182.514 329.204 182.586 328.868 182.73C328.508 182.85 328.268 183.078 328.148 183.414C328.004 183.75 327.932 184.266 327.932 184.962C327.932 185.01 327.86 185.046 327.716 185.07C327.572 185.07 327.5 185.034 327.5 184.962L327.536 183.162C327.584 182.106 327.608 181.254 327.608 180.606C327.608 179.886 327.584 178.974 327.536 177.87L327.5 176.106C327.5 176.058 327.572 176.034 327.716 176.034C327.86 176.034 327.932 176.058 327.932 176.106C327.932 176.826 328.004 177.354 328.148 177.69C328.292 178.026 328.532 178.254 328.868 178.374C329.204 178.47 329.744 178.53 330.488 178.554H347.084C347.804 178.554 348.332 178.494 348.668 178.374C349.004 178.23 349.244 177.99 349.388 177.654C349.508 177.318 349.568 176.802 349.568 176.106C349.568 176.058 349.64 176.034 349.784 176.034C349.928 176.034 350 176.058 350 176.106C350 176.85 349.988 177.45 349.964 177.906L349.928 180.534L349.964 183.09C349.988 183.546 350 184.17 350 184.962ZM350 174.939C350 174.987 349.928 175.011 349.784 175.011C349.64 175.011 349.568 174.987 349.568 174.939C349.568 174.195 349.508 173.667 349.388 173.355C349.268 173.019 349.04 172.791 348.704 172.671C348.368 172.551 347.828 172.491 347.084 172.491H330.416C329.72 172.491 329.204 172.563 328.868 172.707C328.508 172.827 328.268 173.055 328.148 173.391C328.004 173.727 327.932 174.243 327.932 174.939C327.932 174.987 327.86 175.023 327.716 175.047C327.572 175.047 327.5 175.011 327.5 174.939L327.536 173.139C327.584 172.083 327.608 171.231 327.608 170.583C327.608 169.863 327.584 168.951 327.536 167.847L327.5 166.083C327.5 166.035 327.572 166.011 327.716 166.011C327.86 166.011 327.932 166.035 327.932 166.083C327.932 166.803 328.004 167.331 328.148 167.667C328.292 168.003 328.532 168.231 328.868 168.351C329.204 168.447 329.744 168.507 330.488 168.531H347.084C347.804 168.531 348.332 168.471 348.668 168.351C349.004 168.207 349.244 167.967 349.388 167.631C349.508 167.295 349.568 166.779 349.568 166.083C349.568 166.035 349.64 166.011 349.784 166.011C349.928 166.011 350 166.035 350 166.083C350 166.827 349.988 167.427 349.964 167.883L349.928 170.511L349.964 173.067C349.988 173.523 350 174.147 350 174.939Z" fill="#FFEBC9"/>
<path d="M28 194.984C28 195.032 27.928 195.056 27.784 195.056C27.64 195.056 27.568 195.032 27.568 194.984C27.568 194.24 27.508 193.712 27.388 193.4C27.268 193.064 27.04 192.836 26.704 192.716C26.368 192.596 25.828 192.536 25.084 192.536H8.416C7.72 192.536 7.204 192.608 6.868 192.752C6.508 192.872 6.268 193.1 6.148 193.436C6.004 193.772 5.932 194.288 5.932 194.984C5.932 195.032 5.86 195.068 5.716 195.092C5.572 195.092 5.5 195.056 5.5 194.984L5.536 193.184C5.584 192.128 5.608 191.276 5.608 190.628C5.608 189.908 5.584 188.996 5.536 187.892L5.5 186.128C5.5 186.08 5.572 186.056 5.716 186.056C5.86 186.056 5.932 186.08 5.932 186.128C5.932 186.848 6.004 187.376 6.148 187.712C6.292 188.048 6.532 188.276 6.868 188.396C7.204 188.492 7.744 188.552 8.488 188.576H25.084C25.804 188.576 26.332 188.516 26.668 188.396C27.004 188.252 27.244 188.012 27.388 187.676C27.508 187.34 27.568 186.824 27.568 186.128C27.568 186.08 27.64 186.056 27.784 186.056C27.928 186.056 28 186.08 28 186.128C28 186.872 27.988 187.472 27.964 187.928L27.928 190.556L27.964 193.112C27.988 193.568 28 194.192 28 194.984ZM27.568 164.622C27.568 164.526 27.64 164.478 27.784 164.478C27.928 164.478 28 164.526 28 164.622C28 165.294 27.988 165.822 27.964 166.206L27.928 168.33L27.964 171.498C27.988 172.026 28 172.698 28 173.514C28 173.634 27.928 173.694 27.784 173.694C27.64 173.694 27.568 173.634 27.568 173.514C27.568 173.106 27.496 172.722 27.352 172.362C27.184 172.002 26.956 171.822 26.668 171.822C26.524 171.822 26.356 171.882 26.164 172.002L18.316 176.826L24.292 180.75C25.084 181.254 25.708 181.506 26.164 181.506C27.1 181.506 27.568 180.666 27.568 178.986C27.568 178.89 27.64 178.842 27.784 178.842C27.928 178.842 28 178.89 28 178.986C28 179.826 27.988 180.522 27.964 181.074L27.928 184.098L27.964 185.718C27.988 186.054 28 186.546 28 187.194C28 187.314 27.928 187.374 27.784 187.374C27.64 187.374 27.568 187.314 27.568 187.194C27.568 186.354 27.244 185.454 26.596 184.494C25.924 183.534 24.916 182.598 23.572 181.686L17.272 177.438L8.488 182.838C7.576 183.39 6.928 183.918 6.544 184.422C6.136 184.926 5.932 185.514 5.932 186.186C5.932 186.258 5.86 186.294 5.716 186.294C5.572 186.294 5.5 186.258 5.5 186.186L5.536 184.71C5.584 184.086 5.608 183.606 5.608 183.27C5.608 182.454 5.584 181.398 5.536 180.102L5.5 178.23C5.5 178.11 5.572 178.05 5.716 178.05C5.86 178.05 5.932 178.11 5.932 178.23C5.932 178.566 6.004 178.854 6.148 179.094C6.292 179.31 6.496 179.418 6.76 179.418C6.976 179.418 7.18 179.358 7.372 179.238L14.248 174.99L9.208 171.75C8.464 171.246 7.84 170.994 7.336 170.994C6.4 170.994 5.932 171.822 5.932 173.478C5.932 173.574 5.86 173.622 5.716 173.622C5.572 173.622 5.5 173.586 5.5 173.514L5.536 171.426C5.584 170.082 5.608 169.05 5.608 168.33C5.608 167.994 5.584 167.466 5.536 166.746L5.5 165.306C5.5 165.186 5.572 165.126 5.716 165.126C5.86 165.126 5.932 165.186 5.932 165.306C5.932 166.122 6.268 167.01 6.94 167.97C7.588 168.906 8.584 169.854 9.928 170.814L15.292 174.378L25.012 168.366C25.948 167.814 26.608 167.262 26.992 166.71C27.376 166.158 27.568 165.462 27.568 164.622Z" fill="#FFEBC9"/>
<path d="M313.917 248.198C313.942 248.157 314.016 248.175 314.138 248.251C314.261 248.326 314.309 248.385 314.284 248.426C313.893 249.058 313.666 249.539 313.604 249.867C313.529 250.216 313.603 250.53 313.826 250.809C314.048 251.088 314.476 251.423 315.109 251.814L329.284 260.583C329.876 260.949 330.352 261.159 330.714 261.213C331.083 261.301 331.407 261.233 331.686 261.01C331.985 260.8 332.318 260.399 332.684 259.807C332.709 259.767 332.79 259.774 332.925 259.829C333.047 259.905 333.089 259.974 333.052 260.035L332.074 261.547C331.478 262.419 331.009 263.131 330.668 263.682C330.289 264.295 329.83 265.083 329.29 266.047L328.393 267.566C328.367 267.607 328.294 267.59 328.171 267.514C328.049 267.438 328 267.38 328.025 267.339C328.404 266.727 328.621 266.24 328.675 265.878C328.729 265.517 328.645 265.197 328.422 264.918C328.187 264.659 327.76 264.324 327.139 263.913L313.025 255.182C312.413 254.803 311.933 254.576 311.584 254.502C311.222 254.447 310.892 254.525 310.593 254.735C310.314 254.958 309.991 255.365 309.625 255.957C309.6 255.998 309.526 255.98 309.404 255.905C309.281 255.829 309.232 255.771 309.258 255.73C309.649 255.097 309.975 254.593 310.235 254.218L311.648 252.002L312.962 249.809C313.182 249.409 313.5 248.872 313.917 248.198ZM316.435 286.897C316.372 286.999 316.279 287.012 316.157 286.937C316.034 286.861 316.005 286.772 316.068 286.67C316.535 285.915 316.731 285.119 316.656 284.282C316.568 283.466 316.012 282.403 314.989 281.092L303.126 265.711C303.062 265.587 303.105 265.402 303.257 265.157C303.32 265.055 303.403 264.966 303.507 264.889C303.591 264.8 303.659 264.757 303.713 264.762L324.992 267.384C326.036 267.522 326.818 267.512 327.339 267.354C327.88 267.209 328.327 266.851 328.681 266.28C328.719 266.218 328.799 266.226 328.921 266.301C329.044 266.377 329.092 266.435 329.067 266.476L328.033 268.08C327.537 268.79 327.182 269.318 326.968 269.665C326.488 270.44 325.965 271.331 325.4 272.336L324.503 273.855C324.44 273.957 324.347 273.97 324.224 273.894C324.102 273.818 324.072 273.73 324.135 273.628C324.842 272.485 324.88 271.717 324.247 271.326C324.022 271.187 323.666 271.079 323.177 271.003L306.972 268.937L315.743 280.077C316.091 280.518 316.429 280.84 316.755 281.042C317.388 281.433 318.023 281.502 318.66 281.247C319.318 281.005 319.887 280.496 320.367 279.72C320.417 279.638 320.504 279.636 320.626 279.711C320.749 279.787 320.785 279.866 320.734 279.947L319.738 281.49C319.141 282.363 318.616 283.166 318.161 283.901C317.909 284.309 317.614 284.832 317.276 285.47L316.435 286.897Z" fill="#FFEBC9"/>
<path d="M261.641 332.963C261.546 333.035 261.455 333.015 261.367 332.9C261.28 332.786 261.284 332.692 261.379 332.619C262.085 332.08 262.551 331.406 262.779 330.598C262.988 329.804 262.847 328.612 262.358 327.023L256.751 308.425C256.735 308.286 256.842 308.129 257.071 307.955C257.166 307.882 257.276 307.828 257.401 307.793C257.511 307.739 257.59 307.724 257.638 307.748L276.587 317.777C277.513 318.278 278.248 318.547 278.791 318.585C279.348 318.642 279.894 318.467 280.427 318.059C280.485 318.015 280.557 318.05 280.644 318.165C280.732 318.279 280.757 318.351 280.718 318.38L279.181 319.51C278.465 319.997 277.945 320.364 277.621 320.612C276.897 321.166 276.091 321.812 275.205 322.549L273.826 323.649C273.73 323.722 273.639 323.701 273.551 323.587C273.464 323.472 273.468 323.379 273.563 323.306C274.631 322.49 274.939 321.786 274.487 321.195C274.327 320.985 274.032 320.757 273.602 320.512L259.196 312.81L263.424 326.344C263.592 326.88 263.793 327.3 264.026 327.605C264.478 328.196 265.047 328.486 265.733 328.475C266.434 328.483 267.147 328.21 267.872 327.657C267.948 327.598 268.03 327.626 268.117 327.741C268.205 327.855 268.21 327.941 268.134 328L266.653 329.086C265.785 329.689 265.008 330.253 264.322 330.778C263.94 331.069 263.478 331.453 262.935 331.928L261.641 332.963Z" fill="#FFEBC9"/>
<path d="M99.7835 47.0263C99.8607 46.9692 99.9421 46.9986 100.028 47.1144C100.113 47.2302 100.117 47.3166 100.04 47.3737C99.4999 47.7731 99.0681 48.0773 98.7451 48.2863L97.0156 49.5199L94.4894 51.4319C94.0791 51.7651 93.5458 52.1742 92.8897 52.6592C92.7932 52.7305 92.7021 52.7083 92.6165 52.5925C92.5309 52.4767 92.5364 52.3831 92.6329 52.3118C92.961 52.0693 93.227 51.7831 93.4309 51.4533C93.6205 51.1042 93.6297 50.8139 93.4585 50.5823C93.3729 50.4665 93.2248 50.3671 93.0142 50.284L84.47 46.8404L84.8667 53.9785C84.9321 54.915 85.1004 55.5666 85.3714 55.9333C85.9278 56.686 86.8815 56.563 88.2325 55.5644C88.3097 55.5073 88.3911 55.5367 88.4767 55.6525C88.5623 55.7683 88.5665 55.8547 88.4893 55.9118C87.8138 56.4111 87.2469 56.8152 86.7888 57.124L84.3356 58.8925L83.0542 59.8844C82.7983 60.1034 82.4098 60.4055 81.8887 60.7907C81.7922 60.862 81.7012 60.8398 81.6156 60.724C81.53 60.6082 81.5354 60.5146 81.6319 60.4433C82.3074 59.944 82.8386 59.1485 83.2254 58.0568C83.5979 56.9457 83.7515 55.5788 83.686 53.9559L83.3573 46.3646L73.7935 42.5106C72.8075 42.1053 71.9977 41.8981 71.3642 41.8889C70.7164 41.8604 70.1223 42.0458 69.5819 42.4453C69.524 42.4881 69.4522 42.4516 69.3666 42.3358C69.281 42.22 69.2672 42.1407 69.3251 42.0979L70.5334 41.2495C71.0638 40.9172 71.464 40.6511 71.7342 40.4514C72.3904 39.9664 73.2254 39.3194 74.239 38.5104L75.723 37.3688C75.8195 37.2974 75.9106 37.3197 75.9962 37.4355C76.0817 37.5513 76.0763 37.6448 75.9798 37.7162C75.7096 37.9159 75.5208 38.145 75.4134 38.4034C75.3253 38.6476 75.3597 38.8759 75.5166 39.0882C75.645 39.2619 75.8145 39.3902 76.0252 39.4733L83.5284 42.4777L83.1381 36.4988C83.1011 35.6009 82.9329 34.9494 82.6333 34.5441C82.0769 33.7914 81.1329 33.9072 79.8012 34.8915C79.724 34.9486 79.6426 34.9192 79.557 34.8034C79.4714 34.6876 79.4575 34.6083 79.5154 34.5655L81.2159 33.3533C82.3253 32.5931 83.1694 31.9989 83.7484 31.571C84.0186 31.3712 84.429 31.0381 84.9794 30.5715L86.116 29.6866C86.2125 29.6153 86.3036 29.6375 86.3892 29.7533C86.4748 29.8691 86.4693 29.9627 86.3728 30.034C85.7166 30.519 85.2022 31.3171 84.8297 32.4281C84.4622 33.5056 84.2918 34.87 84.3187 36.5215L84.6411 42.9535L95.2534 47.1963C96.2537 47.6209 97.0899 47.8235 97.762 47.8042C98.4342 47.7849 99.108 47.5256 99.7835 47.0263ZM99.5178 47.7599C99.4792 47.7884 99.4171 47.7448 99.3315 47.629C99.2459 47.5132 99.2224 47.441 99.261 47.4125C99.8593 46.9702 100.248 46.6081 100.428 46.3262C100.627 46.03 100.675 45.7111 100.571 45.3696C100.468 45.028 100.195 44.5581 99.7531 43.9598L89.8455 30.556C89.4318 29.9963 89.0672 29.6242 88.7517 29.4396C88.4412 29.2214 88.1152 29.1639 87.7736 29.2672C87.4178 29.3511 86.9601 29.5999 86.4004 30.0136C86.3618 30.0421 86.29 30.0056 86.1851 29.9041C86.0996 29.7883 86.0857 29.709 86.1436 29.6662L87.6125 28.6252C88.4902 28.0361 89.1896 27.549 89.7107 27.1638C90.2897 26.7358 91.0089 26.1744 91.8681 25.4796L93.2653 24.4021C93.3039 24.3736 93.366 24.4172 93.4516 24.533C93.5372 24.6488 93.5607 24.721 93.5221 24.7495C92.9431 25.1775 92.5613 25.5493 92.3767 25.8648C92.1921 26.1803 92.1514 26.5088 92.2546 26.8503C92.3771 27.1776 92.6498 27.6475 93.0728 28.2601L102.938 41.606C103.366 42.185 103.728 42.5739 104.024 42.7728C104.339 42.9574 104.675 43.0077 105.031 42.9238C105.372 42.8206 105.823 42.5621 106.383 42.1484C106.421 42.1199 106.483 42.1635 106.569 42.2793C106.655 42.3951 106.678 42.4673 106.639 42.4958C106.041 42.938 105.552 43.285 105.171 43.5368L103.036 45.0699L101.002 46.6182C100.649 46.9086 100.155 47.2891 99.5178 47.7599Z" fill="#FFEBC9"/>
<path d="M42.7634 115.239C42.7089 115.318 42.7424 115.396 42.8638 115.473C42.9852 115.551 43.0731 115.55 43.1275 115.471C43.5087 114.918 43.7981 114.476 43.9957 114.147L45.1702 112.379L46.9977 109.789C47.3174 109.367 47.7087 108.82 48.1716 108.148C48.2397 108.049 48.213 107.961 48.0916 107.884C47.9702 107.806 47.8755 107.817 47.8074 107.916C47.576 108.252 47.2974 108.529 46.9718 108.748C46.626 108.954 46.3317 108.98 46.0889 108.825C45.9675 108.748 45.8599 108.608 45.7661 108.406L41.8864 100.212L49.1503 100.195C50.1039 100.205 50.7729 100.334 51.1573 100.579C51.9464 101.082 51.8644 102.026 50.9114 103.409C50.857 103.488 50.8905 103.567 51.0119 103.644C51.1332 103.722 51.2212 103.721 51.2756 103.642C51.7521 102.95 52.1368 102.37 52.4297 101.903L54.1148 99.393L55.0641 98.0782C55.2749 97.8144 55.5641 97.4157 55.9317 96.882C55.9998 96.7832 55.9731 96.6951 55.8517 96.6176C55.7303 96.5402 55.6356 96.5509 55.5675 96.6497C55.091 97.3415 54.3073 97.9084 53.2165 98.3505C52.1054 98.7796 50.7246 99.0083 49.0743 99.0365L41.3534 99.1464L37.0114 89.9748C36.5556 89.0297 36.3089 88.2463 36.271 87.6247C36.213 86.9902 36.3745 86.3962 36.7557 85.8428C36.7966 85.7835 36.7563 85.7151 36.6349 85.6377C36.5135 85.5602 36.4324 85.5511 36.3915 85.6104L35.5846 86.8454C35.2711 87.3851 35.0191 87.7933 34.8285 88.07C34.3656 88.742 33.7463 89.5987 32.9707 90.6402L31.8784 92.1625C31.8104 92.2614 31.837 92.3495 31.9584 92.4269C32.0798 92.5044 32.1746 92.4937 32.2426 92.3949C32.4332 92.1182 32.6573 91.9197 32.9148 91.7995C33.1588 91.6991 33.392 91.7199 33.6146 91.8619C33.7967 91.978 33.9346 92.1372 34.0284 92.3393L37.4154 99.536L31.3286 99.4934C30.4155 99.5083 29.7465 99.3803 29.3216 99.1092C28.5325 98.6057 28.6076 97.6721 29.547 96.3084C29.6015 96.2293 29.568 96.151 29.4466 96.0736C29.3252 95.9961 29.2441 95.9871 29.2033 96.0464L28.0492 97.7853C27.3272 98.9179 26.7621 99.7807 26.3536 100.374C26.163 100.65 25.8433 101.072 25.3944 101.639L24.5472 102.806C24.4791 102.905 24.5058 102.993 24.6272 103.07C24.7486 103.148 24.8433 103.137 24.9114 103.038C25.3743 102.366 26.1613 101.816 27.2724 101.387C28.3496 100.964 29.727 100.719 31.4046 100.652L37.9484 100.601L42.7324 110.781C43.2083 111.739 43.4516 112.548 43.4622 113.209C43.4728 113.87 43.2399 114.547 42.7634 115.239Z" fill="#FFEBC9"/>
<path d="M35.873 234.871C35.8477 234.83 35.7739 234.848 35.6514 234.924C35.5289 234.999 35.4803 235.058 35.5056 235.098C35.897 235.731 36.1237 236.212 36.1858 236.54C36.2605 236.889 36.1865 237.203 35.9639 237.482C35.7413 237.761 35.3136 238.096 34.6809 238.487L20.5057 247.255C19.9138 247.622 19.4371 247.832 19.0756 247.886C18.7063 247.973 18.3822 247.906 18.1034 247.683C17.8042 247.473 17.4715 247.072 17.1054 246.48C17.0801 246.44 17 246.447 16.8649 246.502C16.7424 246.578 16.7001 246.646 16.738 246.708L17.7155 248.219C18.3119 249.092 18.7805 249.804 19.1214 250.355C19.5001 250.968 19.9595 251.756 20.4995 252.72L21.3968 254.239C21.4221 254.28 21.4959 254.262 21.6184 254.187C21.7409 254.111 21.7895 254.053 21.7642 254.012C21.3855 253.4 21.1689 252.913 21.1146 252.551C21.0603 252.19 21.1445 251.869 21.3671 251.591C21.6024 251.332 22.03 250.997 22.6501 250.585L36.7641 241.855C37.3764 241.476 37.857 241.249 38.2059 241.175C38.5674 241.12 38.8978 241.198 39.197 241.408C39.4758 241.631 39.7983 242.038 40.1644 242.63C40.1897 242.671 40.2635 242.653 40.386 242.578C40.5085 242.502 40.5571 242.443 40.5318 242.403C40.1404 241.77 39.8146 241.266 39.5543 240.891L38.1412 238.675L36.8272 236.482C36.6077 236.082 36.2896 235.545 35.873 234.871ZM40.7666 242.782C40.7414 242.741 40.6675 242.759 40.5451 242.835C40.4226 242.91 40.374 242.969 40.3992 243.01C40.7906 243.642 41.0174 244.123 41.0794 244.451C41.1541 244.8 41.0802 245.114 40.8576 245.393C40.6349 245.672 40.2073 246.007 39.5745 246.398L25.3993 255.167C24.8074 255.533 24.3307 255.743 23.9692 255.797C23.5999 255.885 23.2759 255.817 22.9971 255.594C22.6978 255.384 22.3652 254.983 21.999 254.391C21.9738 254.351 21.8936 254.358 21.7585 254.413C21.636 254.489 21.5938 254.558 21.6316 254.619L22.6092 256.131C23.2055 257.003 23.6741 257.715 24.015 258.266C24.3938 258.879 24.8531 259.667 25.3931 260.631L26.2905 262.15C26.3157 262.191 26.3896 262.174 26.512 262.098C26.6345 262.022 26.6831 261.964 26.6579 261.923C26.2791 261.311 26.0626 260.824 26.0083 260.462C25.954 260.101 26.0381 259.781 26.2608 259.502C26.496 259.243 26.9237 258.908 27.5438 258.496L41.6578 249.766C42.2701 249.387 42.7507 249.16 43.0996 249.086C43.4611 249.031 43.7914 249.109 44.0906 249.319C44.3695 249.542 44.6919 249.949 45.0581 250.541C45.0833 250.582 45.1572 250.564 45.2796 250.489C45.4021 250.413 45.4507 250.355 45.4255 250.314C45.0341 249.681 44.7082 249.177 44.4479 248.802L43.0348 246.586L41.7208 244.393C41.5013 243.993 41.1833 243.456 40.7666 242.782ZM45.6603 250.693C45.635 250.653 45.5612 250.67 45.4387 250.746C45.3162 250.822 45.2676 250.88 45.2929 250.921C45.6843 251.553 45.911 252.034 45.9731 252.362C46.0478 252.711 45.9738 253.025 45.7512 253.304C45.5286 253.583 45.1009 253.918 44.4682 254.309L30.293 263.078C29.7011 263.444 29.2244 263.654 28.8629 263.708C28.4936 263.796 28.1695 263.728 27.8907 263.505C27.5915 263.295 27.2588 262.895 26.8927 262.303C26.8674 262.262 26.7872 262.269 26.6522 262.324C26.5297 262.4 26.4874 262.469 26.5253 262.53L27.5028 264.042C28.0992 264.915 28.5678 265.626 28.9087 266.178C29.2874 266.79 29.7468 267.578 30.2867 268.542L31.1841 270.061C31.2094 270.102 31.2832 270.085 31.4057 270.009C31.5281 269.933 31.5768 269.875 31.5515 269.834C31.1727 269.222 30.9562 268.735 30.9019 268.373C30.8476 268.012 30.9318 267.692 31.1544 267.413C31.3896 267.155 31.8173 266.819 32.4374 266.408L46.5514 257.677C47.1637 257.298 47.6443 257.072 47.9932 256.997C48.3547 256.943 48.6851 257.02 48.9843 257.23C49.2631 257.453 49.5856 257.86 49.9517 258.452C49.977 258.493 50.0508 258.476 50.1733 258.4C50.2957 258.324 50.3444 258.266 50.3191 258.225C49.9277 257.592 49.6019 257.088 49.3416 256.713L47.9285 254.497L46.6144 252.304C46.395 251.904 46.0769 251.367 45.6603 250.693ZM42.763 288.78C42.8261 288.882 42.9189 288.895 43.0414 288.819C43.1638 288.744 43.1935 288.655 43.1304 288.553C42.6632 287.798 42.4672 287.002 42.5423 286.165C42.6301 285.349 43.1858 284.285 44.2094 282.975L56.0722 267.594C56.1364 267.47 56.0927 267.285 55.9412 267.04C55.8781 266.938 55.7946 266.849 55.6906 266.772C55.6071 266.682 55.5386 266.64 55.4851 266.645L34.2062 269.267C33.1626 269.405 32.3803 269.395 31.8595 269.237C31.3183 269.092 30.871 268.734 30.5174 268.162C30.4796 268.101 30.3994 268.108 30.2769 268.184C30.1545 268.26 30.1059 268.318 30.1311 268.359L31.1655 269.963C31.6608 270.672 32.0158 271.201 32.2304 271.548C32.7102 272.323 33.2327 273.213 33.7979 274.218L34.6953 275.738C34.7584 275.84 34.8512 275.853 34.9736 275.777C35.0961 275.701 35.1258 275.612 35.0626 275.51C34.3556 274.367 34.3185 273.6 34.9512 273.209C35.1757 273.07 35.5324 272.962 36.0212 272.885L52.226 270.82L43.4548 281.96C43.1067 282.401 42.7694 282.723 42.4429 282.925C41.8101 283.316 41.1751 283.384 40.5377 283.13C39.8799 282.887 39.3112 282.378 38.8314 281.603C38.7809 281.521 38.6944 281.518 38.5719 281.594C38.4495 281.67 38.4135 281.748 38.464 281.83L39.4605 283.373C40.0568 284.245 40.5822 285.049 41.0368 285.784C41.2893 286.192 41.5845 286.715 41.9224 287.353L42.763 288.78Z" fill="#FFEBC9"/>
<path d="M78.0682 294.238C78.026 294.215 77.9707 294.267 77.9023 294.394C77.834 294.52 77.8209 294.595 77.8631 294.618C78.5179 294.971 78.9541 295.275 79.1718 295.528C79.4105 295.793 79.5029 296.102 79.449 296.455C79.3951 296.808 79.1915 297.311 78.8383 297.966L70.9246 312.636C70.5941 313.248 70.2858 313.668 69.9995 313.896C69.723 314.156 69.4083 314.259 69.0557 314.205C68.6916 314.172 68.2033 313.99 67.5907 313.66C67.5485 313.637 67.4826 313.683 67.3931 313.799C67.3247 313.925 67.3222 314.006 67.3856 314.04L68.9869 314.863C69.9391 315.322 70.7003 315.705 71.2706 316.013C71.9043 316.355 72.6955 316.809 73.6444 317.375L75.1798 318.245C75.222 318.267 75.2773 318.215 75.3457 318.089C75.4141 317.962 75.4271 317.887 75.3849 317.864C74.7512 317.523 74.3207 317.209 74.0934 316.922C73.866 316.636 73.7793 316.317 73.8332 315.964C73.9083 315.623 74.1118 315.119 74.4439 314.453L82.3235 299.846C82.6653 299.213 82.9688 298.777 83.2339 298.538C83.5202 298.31 83.8454 298.213 84.2095 298.246C84.5621 298.3 85.0448 298.492 85.6573 298.823C85.6996 298.845 85.7549 298.793 85.8232 298.667C85.8916 298.54 85.9047 298.465 85.8624 298.442C85.2076 298.089 84.6739 297.815 84.2611 297.619L81.9311 296.403L79.6987 295.158C79.3088 294.92 78.7653 294.614 78.0682 294.238ZM86.8889 298.996C86.8467 298.973 86.7914 299.025 86.723 299.152C86.6546 299.279 86.6416 299.354 86.6838 299.376C87.3386 299.73 87.7748 300.033 87.9924 300.287C88.2312 300.552 88.3236 300.861 88.2697 301.214C88.2158 301.566 88.0122 302.07 87.6589 302.725L79.7452 317.394C79.4148 318.007 79.1064 318.427 78.8202 318.654C78.5436 318.914 78.229 319.017 77.8763 318.963C77.5123 318.93 77.0239 318.749 76.4114 318.418C76.3691 318.395 76.3033 318.442 76.2138 318.557C76.1454 318.684 76.1429 318.764 76.2063 318.798L77.8076 319.621C78.7597 320.08 79.521 320.464 80.0913 320.772C80.725 321.113 81.5162 321.567 82.4651 322.134L84.0005 323.003C84.0427 323.026 84.098 322.974 84.1664 322.847C84.2348 322.72 84.2478 322.646 84.2056 322.623C83.5719 322.281 83.1414 321.967 82.914 321.681C82.6867 321.394 82.6 321.075 82.6539 320.722C82.7289 320.381 82.9325 319.877 83.2646 319.211L91.1442 304.605C91.486 303.971 91.7895 303.535 92.0546 303.296C92.3409 303.069 92.6661 302.972 93.0301 303.004C93.3828 303.058 93.8655 303.251 94.478 303.581C94.5203 303.604 94.5756 303.552 94.6439 303.425C94.7123 303.298 94.7254 303.224 94.6831 303.201C94.0283 302.848 93.4946 302.573 93.0818 302.378L90.7518 301.162L88.5194 299.917C88.1295 299.679 87.586 299.372 86.8889 298.996ZM104.005 333.795C104.111 333.852 104.198 333.817 104.266 333.69C104.335 333.564 104.316 333.472 104.211 333.415C103.429 332.993 102.862 332.401 102.51 331.639C102.179 330.887 102.13 329.688 102.364 328.042L104.976 308.794C104.969 308.654 104.84 308.516 104.586 308.379C104.48 308.322 104.363 308.287 104.235 308.272C104.118 308.236 104.038 308.234 103.994 308.264L86.8575 321.149C86.0215 321.789 85.3385 322.171 84.8085 322.294C84.2671 322.438 83.7007 322.351 83.1093 322.031C83.0459 321.997 82.98 322.044 82.9117 322.17C82.8433 322.297 82.8302 322.372 82.8725 322.395L84.5688 323.269C85.352 323.637 85.9231 323.918 86.2822 324.111C87.0849 324.544 87.9818 325.055 88.9728 325.645L90.5082 326.514C90.6139 326.571 90.7009 326.536 90.7692 326.409C90.8376 326.282 90.819 326.191 90.7134 326.134C89.5305 325.495 89.1157 324.849 89.4689 324.194C89.5943 323.962 89.8497 323.691 90.2352 323.38L103.251 313.508L101.204 327.539C101.122 328.095 100.99 328.542 100.808 328.88C100.455 329.534 99.9383 329.91 99.2588 330.007C98.5678 330.125 97.8211 329.968 97.0184 329.535C96.9339 329.489 96.8575 329.53 96.7891 329.657C96.7208 329.783 96.7288 329.87 96.8133 329.915L98.4463 330.755C99.3984 331.214 100.255 331.649 101.015 332.059C101.438 332.287 101.954 332.593 102.565 332.977L104.005 333.795Z" fill="#FFEBC9"/>
<path d="M181.58 350.5C181.7 350.5 181.76 350.428 181.76 350.284C181.76 350.14 181.7 350.068 181.58 350.068C180.692 350.068 179.912 349.816 179.24 349.312C178.592 348.808 177.98 347.776 177.404 346.216L170.564 328.036C170.492 327.916 170.312 327.856 170.024 327.856C169.904 327.856 169.784 327.88 169.664 327.928C169.544 327.952 169.472 327.988 169.448 328.036L160.484 347.512C160.052 348.472 159.632 349.132 159.224 349.492C158.816 349.876 158.276 350.068 157.604 350.068C157.532 350.068 157.496 350.14 157.496 350.284C157.496 350.428 157.52 350.5 157.568 350.5L159.476 350.464C160.34 350.416 160.976 350.392 161.384 350.392C162.296 350.392 163.328 350.416 164.48 350.464L166.244 350.5C166.364 350.5 166.424 350.428 166.424 350.284C166.424 350.14 166.364 350.068 166.244 350.068C164.9 350.068 164.228 349.696 164.228 348.952C164.228 348.688 164.324 348.328 164.516 347.872L171.284 333.004L176.144 346.324C176.336 346.852 176.432 347.308 176.432 347.692C176.432 348.436 176.156 349.012 175.604 349.42C175.052 349.852 174.32 350.068 173.408 350.068C173.312 350.068 173.264 350.14 173.264 350.284C173.264 350.428 173.312 350.5 173.408 350.5L175.244 350.464C176.3 350.416 177.26 350.392 178.124 350.392C178.604 350.392 179.204 350.416 179.924 350.464L181.58 350.5ZM180.445 328C180.397 328 180.373 328.072 180.373 328.216C180.373 328.36 180.397 328.432 180.445 328.432C181.189 328.432 181.717 328.492 182.029 328.612C182.365 328.732 182.593 328.96 182.713 329.296C182.833 329.632 182.893 330.172 182.893 330.916V347.584C182.893 348.28 182.821 348.796 182.677 349.132C182.557 349.492 182.329 349.732 181.993 349.852C181.657 349.996 181.141 350.068 180.445 350.068C180.397 350.068 180.361 350.14 180.337 350.284C180.337 350.428 180.373 350.5 180.445 350.5L182.245 350.464C183.301 350.416 184.153 350.392 184.801 350.392C185.521 350.392 186.433 350.416 187.537 350.464L189.301 350.5C189.349 350.5 189.373 350.428 189.373 350.284C189.373 350.14 189.349 350.068 189.301 350.068C188.581 350.068 188.053 349.996 187.717 349.852C187.381 349.708 187.153 349.468 187.033 349.132C186.937 348.796 186.877 348.256 186.853 347.512V330.916C186.853 330.196 186.913 329.668 187.033 329.332C187.177 328.996 187.417 328.756 187.753 328.612C188.089 328.492 188.605 328.432 189.301 328.432C189.349 328.432 189.373 328.36 189.373 328.216C189.373 328.072 189.349 328 189.301 328C188.557 328 187.957 328.012 187.501 328.036L184.873 328.072L182.317 328.036C181.861 328.012 181.237 328 180.445 328Z" fill="#FFEBC9"/>
<path d="M267 178L257 172.226V183.774L267 178ZM183 179H258V177H183V179Z" fill="#FFEBC9"/>
<path d="M178 64.9908L172.226 74.9908H183.774L178 64.9908ZM179 173.009V73.9908H177V173.009H179Z" fill="#FFEBC9"/>
</svg>
